if (_typeface_js && _typeface_js.loadFace) _typeface_js.loadFace({"glyphs":{"S":{"x_min":44.921875,"x_max":871.109375,"ha":935,"o":"m 44 331 l 44 283 b 472 -8 44 -15 246 -8 b 871 309 735 -8 871 16 b 470 611 871 575 785 591 b 246 755 272 623 246 627 b 472 886 246 866 277 886 b 654 769 609 886 654 881 l 654 736 l 850 736 l 850 769 b 472 1050 850 1043 680 1050 b 50 755 227 1050 50 1041 b 445 447 50 452 224 461 b 675 309 597 438 675 458 b 472 155 675 188 650 155 b 240 283 291 155 240 163 l 240 331 l 44 331 "},"¦":{"x_min":125.21875,"x_max":255.890625,"ha":389,"o":"m 255 937 l 125 937 l 125 452 l 255 452 l 255 937 m 255 -243 l 255 243 l 125 243 l 125 -243 l 255 -243 "},"/":{"x_min":-7,"x_max":935,"ha":947,"o":"m 935 1041 l 781 1041 l -7 -156 l 145 -156 l 935 1041 "},"y":{"x_min":-7,"x_max":667,"ha":674,"o":"m 667 729 l 492 729 l 353 108 l 351 108 l 170 729 l -7 729 l 228 0 l 311 0 b 172 -190 296 -84 280 -190 b 135 -186 160 -190 148 -187 l 135 -318 b 209 -323 160 -319 184 -323 b 481 -29 409 -323 442 -194 l 667 729 "},"≈":{"x_min":67,"x_max":853.71875,"ha":944,"o":"m 792 665 b 634 550 744 590 698 550 b 482 606 576 550 542 572 b 303 668 435 631 381 668 b 67 516 207 668 117 605 l 128 457 b 294 572 173 516 219 572 b 442 519 350 572 396 545 b 634 452 520 477 565 452 b 853 605 727 452 799 514 l 792 665 m 792 378 b 633 265 742 303 699 265 b 480 321 571 265 532 294 b 303 383 435 346 381 383 b 67 230 207 383 117 319 l 128 169 b 295 285 173 230 218 285 b 442 234 350 285 395 260 b 633 168 517 192 565 168 b 853 317 729 168 799 230 l 792 378 "},"Ž":{"x_min":33.09375,"x_max":847.03125,"ha":900,"o":"m 840 1041 l 57 1041 l 57 870 l 593 870 l 593 865 l 33 169 l 33 0 l 847 0 l 847 170 l 275 170 l 275 175 l 840 870 l 840 1041 m 440 1123 l 682 1273 l 648 1343 l 440 1255 l 230 1343 l 197 1273 l 440 1123 "},"Á":{"x_min":-4,"x_max":969,"ha":985,"o":"m 703 197 l 770 0 l 969 0 l 623 1041 l 334 1041 l -4 0 l 198 0 l 262 197 l 703 197 m 660 348 l 307 348 l 481 888 l 484 888 l 660 348 m 598 1344 l 359 1183 l 396 1111 l 660 1230 l 598 1344 "},"g":{"x_min":57.171875,"x_max":724.109375,"ha":825,"o":"m 381 604 b 552 386 529 604 552 541 b 381 125 552 212 552 125 b 228 386 228 125 228 220 b 381 604 228 569 262 604 m 558 -34 b 381 -190 558 -159 526 -190 b 247 -75 284 -190 247 -175 l 87 -75 b 381 -323 76 -293 206 -323 b 724 1 642 -323 724 -261 l 724 729 l 552 729 l 559 619 l 553 619 b 330 737 510 715 431 737 b 57 343 65 737 57 566 b 330 -8 57 129 85 -8 b 553 104 417 -8 509 8 l 558 104 l 558 -34 "},"²":{"x_min":46.28125,"x_max":507.6875,"ha":588,"o":"m 507 533 l 175 533 l 175 551 b 302 645 174 631 204 629 b 507 856 454 672 507 691 b 283 1050 507 1022 427 1050 b 46 822 58 1050 46 975 l 175 822 b 283 948 175 947 196 948 b 378 856 355 948 378 936 b 246 733 378 743 353 755 b 46 538 108 709 46 698 l 46 425 l 507 425 l 507 533 "},"–":{"x_min":0,"x_max":680.5625,"ha":694,"o":"m 0 450 l 0 316 l 680 316 l 680 450 l 0 450 "},"ë":{"x_min":57.171875,"x_max":720.03125,"ha":792,"o":"m 548 231 b 386 125 548 123 481 125 b 228 331 232 125 228 175 l 720 331 b 386 737 720 650 680 737 b 57 362 98 737 57 623 b 386 -8 57 80 112 -8 b 720 231 590 -8 720 2 l 548 231 m 228 443 b 386 604 228 572 238 604 b 548 443 526 604 548 593 l 228 443 m 182 965 l 182 843 l 317 843 l 317 965 l 182 965 m 460 965 l 460 843 l 594 843 l 594 965 l 460 965 "},"ƒ":{"x_min":106,"x_max":853,"ha":979,"o":"m 853 1050 b 467 790 602 1050 512 1058 l 447 675 l 325 675 l 303 541 l 425 541 l 319 -66 b 129 -190 297 -188 291 -190 l 106 -323 b 493 -100 348 -323 454 -323 l 605 541 l 765 541 l 787 675 l 627 675 l 647 790 b 829 916 667 916 708 916 l 853 1050 "},"Î":{"x_min":-54.4375,"x_max":430.109375,"ha":383,"o":"m 285 1041 l 89 1041 l 89 0 l 285 0 l 285 1041 m 187 1343 l -54 1193 l -21 1123 l 187 1211 l 396 1123 l 430 1193 l 187 1343 "},"e":{"x_min":57.171875,"x_max":720.03125,"ha":792,"o":"m 548 231 b 386 125 548 123 481 125 b 228 331 232 125 228 175 l 720 331 b 386 737 720 650 680 737 b 57 362 98 737 57 623 b 386 -8 57 80 112 -8 b 720 231 590 -8 720 2 l 548 231 m 228 443 b 386 604 228 572 238 604 b 548 443 526 604 548 593 l 228 443 "},"Ã":{"x_min":-4,"x_max":969,"ha":985,"o":"m 703 197 l 770 0 l 969 0 l 623 1041 l 334 1041 l -4 0 l 198 0 l 262 197 l 703 197 m 660 348 l 307 348 l 481 888 l 484 888 l 660 348 m 661 1290 b 585 1227 645 1261 620 1227 b 375 1307 529 1227 447 1307 b 219 1188 299 1307 253 1251 l 306 1140 b 379 1198 322 1172 340 1198 b 587 1122 435 1198 509 1122 b 745 1243 665 1122 710 1179 l 661 1290 "},"J":{"x_min":40.828125,"x_max":713.21875,"ha":810,"o":"m 517 1041 l 517 320 b 382 162 517 193 499 162 b 228 330 228 162 228 194 l 228 408 l 40 408 l 40 258 b 382 -8 40 18 174 -8 b 713 320 616 -8 713 47 l 713 1041 l 517 1041 "},"»":{"x_min":69,"x_max":650.046875,"ha":735,"o":"m 471 749 l 354 682 l 500 382 l 346 88 l 455 18 l 650 382 l 471 749 m 192 749 l 77 682 l 222 382 l 69 88 l 177 18 l 372 382 l 192 749 "},"∆":{"x_min":44.984375,"x_max":1063.09375,"ha":1132,"o":"m 44 0 l 1063 0 l 1063 97 l 656 1045 l 456 1045 l 44 95 l 44 0 m 221 129 l 453 666 b 544 901 480 738 529 855 l 551 901 b 653 641 571 837 626 712 l 873 129 l 221 129 "},"©":{"x_min":19.0625,"x_max":1056.21875,"ha":1097,"o":"m 537 -8 b 1056 520 823 -8 1056 227 b 537 1050 1056 813 823 1050 b 19 520 250 1050 19 813 b 537 -8 19 227 250 -8 m 537 91 b 115 520 303 91 115 283 b 537 950 115 758 303 950 b 958 520 767 950 958 758 b 537 91 958 283 767 91 m 684 426 b 559 318 680 361 622 318 b 387 527 450 318 387 427 b 555 734 387 633 443 734 b 684 630 620 734 673 695 l 800 630 b 556 831 779 756 681 831 b 273 525 379 831 273 701 b 559 220 273 354 385 220 b 800 426 680 220 786 297 l 684 426 "},"˘":{"x_min":102.078125,"x_max":563.5,"ha":679,"o":"m 102 1011 b 333 788 110 888 210 788 b 563 1011 454 788 555 888 l 473 1011 b 333 891 462 941 401 891 b 191 1011 264 891 202 941 l 102 1011 "},"≥":{"x_min":81.671875,"x_max":841.171875,"ha":944,"o":"m 89 945 l 89 834 l 736 545 l 736 543 l 89 252 l 89 141 l 841 491 l 841 594 l 89 945 m 839 -16 l 839 81 l 81 81 l 81 -16 l 839 -16 "},"ò":{"x_min":59.890625,"x_max":732.28125,"ha":808,"o":"m 396 737 b 59 363 98 737 59 647 b 396 -8 59 81 98 -8 b 732 363 694 -8 732 81 b 396 737 732 647 694 737 m 396 604 b 560 362 548 604 560 559 b 396 125 560 168 548 125 b 231 362 243 125 231 168 b 396 604 231 559 243 604 m 307 1031 l 246 918 l 510 798 l 547 870 l 307 1031 "},"^":{"x_min":68,"x_max":727,"ha":811,"o":"m 349 1041 l 68 368 l 204 368 l 397 852 l 590 368 l 727 368 l 445 1041 l 349 1041 "},"«":{"x_min":69,"x_max":650,"ha":735,"o":"m 247 749 l 69 382 l 262 18 l 372 88 l 218 382 l 364 682 l 247 749 m 526 749 l 346 382 l 541 18 l 650 88 l 496 382 l 641 682 l 526 749 "},"D":{"x_min":84.390625,"x_max":973.203125,"ha":1047,"o":"m 84 0 l 604 0 b 973 408 913 0 973 191 l 973 654 b 571 1041 973 937 853 1041 l 84 1041 l 84 0 m 280 170 l 280 870 l 571 870 b 777 654 721 870 777 827 l 777 408 b 604 170 777 291 736 170 l 280 170 "},"∙":{"x_min":153.8125,"x_max":325.3125,"ha":489,"o":"m 325 488 l 153 488 l 153 298 l 325 298 l 325 488 "},"ł":{"x_min":0,"x_max":370.21875,"ha":378,"o":"m 270 587 l 370 680 l 370 802 l 270 709 l 270 1041 l 99 1041 l 99 563 l 0 469 l 0 347 l 99 443 l 99 0 l 270 0 l 270 587 "},"ÿ":{"x_min":-6.8125,"x_max":666.953125,"ha":674,"o":"m 666 729 l 492 729 l 353 108 l 351 108 l 170 729 l -6 729 l 228 0 l 311 0 b 172 -190 296 -84 280 -190 b 136 -186 160 -190 148 -187 l 136 -318 b 209 -323 160 -319 185 -323 b 481 -29 409 -323 442 -194 l 666 729 m 123 965 l 123 843 l 258 843 l 258 965 l 123 965 m 401 965 l 401 843 l 536 843 l 536 965 l 401 965 "},"Ł":{"x_min":-19.0625,"x_max":762.21875,"ha":785,"o":"m 285 563 l 504 769 l 504 925 l 285 719 l 285 1041 l 89 1041 l 89 555 l -19 452 l -19 294 l 89 398 l 89 0 l 762 0 l 762 170 l 285 170 l 285 563 "},"í":{"x_min":10.890625,"x_max":311.6875,"ha":328,"o":"m 246 729 l 74 729 l 74 0 l 246 0 l 246 729 m 250 1031 l 10 870 l 47 798 l 311 918 l 250 1031 "},"ˆ":{"x_min":102,"x_max":586.5625,"ha":703,"o":"m 344 1030 l 102 880 l 134 811 l 344 898 l 552 811 l 586 880 l 344 1030 "},"w":{"x_min":3,"x_max":1081,"ha":1106,"o":"m 1081 729 l 914 729 l 792 119 l 787 119 l 649 729 l 435 729 l 297 119 l 292 119 l 171 729 l 3 729 l 164 0 l 414 0 l 540 586 l 544 586 l 672 0 l 917 0 l 1081 729 "},"$":{"x_min":35.390625,"x_max":925.5625,"ha":979,"o":"m 532 445 b 740 313 661 443 740 443 b 532 155 740 184 700 154 l 532 445 m 532 886 b 720 779 669 883 714 879 l 720 744 l 891 744 l 891 779 b 532 1050 891 1036 744 1043 l 532 1151 l 423 1151 l 423 1050 b 40 741 174 1050 40 1015 b 423 445 40 487 176 468 l 423 155 b 206 301 261 156 206 163 l 206 338 l 35 338 l 35 301 b 423 -8 35 116 85 -8 l 423 -116 l 532 -116 l 532 -8 b 925 313 803 -8 925 58 b 532 609 925 588 773 597 l 532 886 m 423 609 b 225 741 299 618 225 618 b 423 886 225 883 277 883 l 423 609 "},"∫":{"x_min":13.609375,"x_max":571.671875,"ha":601,"o":"m 571 1230 b 476 1252 553 1240 514 1252 b 310 1190 417 1252 353 1234 b 217 870 243 1127 217 1033 b 242 143 217 631 242 394 b 189 -95 242 1 220 -56 b 112 -127 170 -116 140 -127 b 36 -109 80 -127 51 -116 l 13 -218 b 133 -244 36 -230 88 -244 b 314 -150 202 -244 274 -215 b 379 140 348 -98 379 -6 b 355 854 379 388 355 620 b 404 1105 355 981 367 1061 b 488 1141 424 1130 458 1141 b 551 1126 510 1141 536 1134 l 571 1230 "},"\\":{"x_min":-67.5,"x_max":447,"ha":386,"o":"m 294 -156 l 447 -156 l 86 1041 l -67 1041 l 294 -156 "},"Ì":{"x_min":38.109375,"x_max":338.921875,"ha":383,"o":"m 285 1041 l 89 1041 l 89 0 l 285 0 l 285 1041 m 99 1344 l 38 1230 l 302 1111 l 338 1183 l 99 1344 "},"µ":{"x_min":85.75,"x_max":722.75,"ha":824,"o":"m 722 0 l 722 729 l 551 729 l 551 308 b 377 125 551 182 509 125 b 257 269 266 125 257 165 l 257 729 l 85 729 l 85 -314 l 257 -314 l 257 -2 b 325 -8 280 -6 298 -8 b 551 112 423 -8 511 15 l 556 112 l 556 0 l 722 0 "},"Ç":{"x_min":50.359375,"x_max":902.484375,"ha":967,"o":"m 521 -18 l 366 -113 l 402 -177 l 581 -105 l 521 -18 m 891 691 l 891 748 b 477 1048 877 1047 732 1048 b 50 640 176 1048 50 973 l 50 401 b 477 -9 54 97 118 -23 b 902 304 730 1 906 -9 l 902 372 l 706 372 l 706 315 b 477 161 706 166 635 161 b 246 409 272 161 247 201 l 246 640 b 477 877 246 844 280 877 b 695 748 649 877 695 869 l 695 691 l 891 691 "},"’":{"x_min":65.328125,"x_max":250.4375,"ha":322,"o":"m 65 679 l 99 679 b 250 877 245 679 250 758 l 250 1041 l 78 1041 l 78 854 l 147 854 b 65 761 147 776 115 761 l 65 679 "},"-":{"x_min":0,"x_max":362.0625,"ha":369,"o":"m 0 450 l 0 316 l 362 316 l 362 450 l 0 450 "},"Q":{"x_min":70.578125,"x_max":1053.296875,"ha":1064,"o":"m 1053 140 l 953 208 b 973 389 971 265 973 371 l 973 669 b 521 1050 971 1037 762 1050 b 70 669 218 1050 70 994 l 70 389 b 521 -7 80 44 205 -7 b 885 90 638 -7 789 -10 l 974 22 l 1053 140 m 553 489 l 473 371 l 723 205 b 521 162 669 160 594 162 b 266 389 322 162 266 174 l 266 669 b 521 879 266 867 346 879 b 777 669 715 879 777 858 l 777 486 b 771 337 777 436 772 387 l 553 489 "},"M":{"x_min":89.828125,"x_max":1280.8125,"ha":1399,"o":"m 1094 877 l 1101 877 l 1084 0 l 1280 0 l 1280 1041 l 959 1041 l 687 268 l 681 268 l 404 1041 l 89 1041 l 89 0 l 285 0 l 269 873 l 273 873 l 597 0 l 773 0 l 1094 877 "},"C":{"x_min":50.359375,"x_max":902.484375,"ha":967,"o":"m 891 691 l 891 748 b 477 1048 877 1047 732 1048 b 50 640 176 1048 50 973 l 50 401 b 477 -9 54 97 118 -23 b 902 304 730 1 906 -9 l 902 372 l 706 372 l 706 315 b 477 161 706 166 635 161 b 246 409 272 161 247 201 l 246 640 b 477 877 246 844 280 877 b 695 748 649 877 695 869 l 695 691 l 891 691 "},"œ":{"x_min":54.4375,"x_max":1212.75,"ha":1293,"o":"m 387 604 b 549 363 536 604 549 591 b 387 125 549 154 533 125 b 225 363 247 125 225 156 b 387 604 225 583 239 604 m 54 363 b 392 -8 54 80 102 -8 b 635 95 488 -8 590 -8 l 639 95 b 879 -8 677 -2 779 -8 b 1212 231 1083 -8 1212 2 l 1041 231 b 879 125 1041 123 974 125 b 721 331 725 125 721 175 l 1212 331 b 879 737 1212 650 1173 737 b 639 637 797 737 677 731 l 637 637 b 392 737 605 737 460 737 b 54 363 69 737 54 609 m 721 443 b 879 604 721 572 730 604 b 1041 443 1019 604 1041 593 l 721 443 "},"!":{"x_min":112.96875,"x_max":306.25,"ha":429,"o":"m 295 190 l 123 190 l 123 0 l 295 0 l 295 190 m 306 1041 l 112 1041 l 123 348 l 295 348 l 306 1041 "},"ç":{"x_min":62.609375,"x_max":707.78125,"ha":765,"o":"m 423 -16 l 268 -112 l 304 -176 l 483 -104 l 423 -16 m 536 277 b 382 125 536 150 522 125 b 234 363 231 125 234 181 b 382 604 234 551 235 604 b 536 473 502 604 536 584 l 707 473 b 382 737 707 704 594 737 b 62 363 102 737 62 619 b 382 -8 62 69 119 -8 b 707 277 623 -8 707 38 l 536 277 "},"È":{"x_min":76,"x_max":779.703125,"ha":860,"o":"m 272 870 l 775 870 l 775 1041 l 76 1041 l 76 0 l 779 0 l 779 170 l 272 170 l 272 447 l 749 447 l 749 611 l 272 611 l 272 870 m 331 1344 l 270 1230 l 534 1111 l 571 1183 l 331 1344 "},"ﬁ":{"x_min":19.0625,"x_max":718.671875,"ha":811,"o":"m 718 1041 l 547 1041 l 547 893 l 718 893 l 718 1041 m 718 729 l 547 729 l 547 0 l 718 0 l 718 729 m 460 1041 l 348 1041 b 119 793 160 1041 119 968 l 119 729 l 19 729 l 19 595 l 119 595 l 119 0 l 291 0 l 291 595 l 465 595 l 465 729 l 291 729 l 291 773 b 408 908 291 863 291 912 l 460 908 l 460 1041 "},"{":{"x_min":50.359375,"x_max":446.4375,"ha":540,"o":"m 50 361 b 161 286 77 361 161 362 l 161 -23 b 315 -208 161 -151 266 -208 l 446 -208 l 446 -75 l 396 -75 b 333 -4 333 -75 333 -38 l 333 283 b 202 425 330 412 245 420 l 202 427 b 333 558 245 431 330 454 l 333 845 b 396 916 333 880 333 916 l 446 916 l 446 1050 l 315 1050 b 161 865 266 1050 161 993 l 161 555 b 50 494 161 494 77 494 l 50 361 "},"X":{"x_min":-15,"x_max":958,"ha":963,"o":"m 934 1041 l 710 1041 l 474 627 l 238 1041 l 9 1041 l 321 537 l -15 0 l 216 0 l 474 440 l 732 0 l 958 0 l 631 537 l 934 1041 "},"ô":{"x_min":60.265625,"x_max":732.65625,"ha":808,"o":"m 396 737 b 60 363 98 737 60 647 b 396 -8 60 81 98 -8 b 732 363 694 -8 732 81 b 396 737 732 647 694 737 m 396 604 b 561 362 548 604 561 559 b 396 125 561 168 548 125 b 231 362 244 125 231 168 b 396 604 231 559 244 604 m 396 1030 l 154 880 l 186 811 l 396 898 l 604 811 l 638 880 l 396 1030 "},"¼":{"x_min":73.625,"x_max":1352.6875,"ha":1468,"o":"m 1299 625 l 1107 625 l 836 264 l 836 128 l 1170 128 l 1170 0 l 1299 0 l 1299 128 l 1352 128 l 1352 230 l 1299 230 l 1299 625 m 1170 230 l 943 230 l 1166 525 l 1170 525 l 1170 230 m 1110 1041 l 981 1041 l 336 0 l 462 0 l 1110 1041 m 430 1041 l 269 1041 l 73 853 l 141 772 l 300 935 l 300 416 l 430 416 l 430 1041 "},"#":{"x_min":106.046875,"x_max":854.96875,"ha":979,"o":"m 386 1041 l 333 750 l 161 750 l 161 590 l 304 590 l 272 405 l 106 405 l 106 245 l 242 245 l 197 0 l 323 0 l 368 245 l 517 245 l 472 0 l 598 0 l 643 245 l 816 245 l 816 405 l 676 405 l 709 590 l 854 590 l 854 750 l 733 750 l 786 1041 l 661 1041 l 608 750 l 460 750 l 513 1041 l 386 1041 m 431 590 l 584 590 l 548 405 l 398 405 l 431 590 "},"Ê":{"x_min":76,"x_max":779.6875,"ha":860,"o":"m 272 870 l 775 870 l 775 1041 l 76 1041 l 76 0 l 779 0 l 779 170 l 272 170 l 272 447 l 749 447 l 749 611 l 272 611 l 272 870 m 421 1343 l 179 1193 l 212 1123 l 421 1211 l 629 1123 l 664 1193 l 421 1343 "},")":{"x_min":74.859375,"x_max":393.359375,"ha":483,"o":"m 74 886 b 208 709 206 886 208 798 l 208 131 b 74 -44 208 16 200 -44 l 74 -208 b 393 241 393 -208 390 -54 l 393 608 b 74 1050 393 930 378 1050 l 74 886 "},"Å":{"x_min":-4.078125,"x_max":969.109375,"ha":985,"o":"m 703 197 l 770 0 l 969 0 l 623 1041 l 334 1041 l -4 0 l 198 0 l 262 197 l 703 197 m 660 348 l 307 348 l 481 888 l 484 888 l 660 348 m 357 1251 b 483 1123 357 1181 413 1123 b 608 1251 552 1123 608 1181 b 483 1379 608 1322 552 1379 b 357 1251 413 1379 357 1322 m 419 1251 b 483 1316 419 1287 447 1316 b 547 1251 518 1316 547 1287 b 483 1186 547 1215 518 1186 b 419 1251 447 1186 419 1215 "},"ø":{"x_min":2.890625,"x_max":790.96875,"ha":808,"o":"m 790 748 l 678 656 b 397 737 616 735 488 737 b 60 365 98 737 60 652 b 79 148 60 293 60 218 l 2 80 l 2 -29 l 119 72 b 403 -8 181 -6 311 -8 b 732 413 728 -8 732 126 b 717 577 732 469 733 524 l 790 635 l 790 748 m 560 381 b 545 205 560 327 559 255 b 405 125 526 127 477 125 b 254 177 358 125 269 120 l 559 452 l 560 381 m 232 272 l 231 344 b 239 508 231 392 232 463 b 388 604 254 597 310 604 b 543 548 435 604 529 608 l 232 272 "},"â":{"x_min":59.296875,"x_max":716.703125,"ha":818,"o":"m 387 327 b 545 223 471 327 545 325 b 387 111 545 119 478 111 b 230 223 271 111 230 120 b 387 327 230 327 300 327 m 545 0 l 716 0 l 716 456 b 392 737 716 701 621 737 b 86 516 229 737 86 729 l 258 516 b 392 618 258 611 317 618 b 545 458 535 618 545 576 l 545 363 l 539 363 b 326 447 498 445 413 447 b 59 223 149 447 59 398 b 326 -8 59 26 164 -8 b 547 91 409 -8 513 -5 l 552 91 l 545 0 m 402 1030 l 160 880 l 192 811 l 402 898 l 610 811 l 644 880 l 402 1030 "},"}":{"x_min":83.03125,"x_max":479.109375,"ha":540,"o":"m 479 480 b 367 555 451 480 367 479 l 367 865 b 213 1050 367 993 262 1050 l 83 1050 l 83 916 l 133 916 b 196 845 196 916 196 880 l 196 558 b 326 416 198 429 284 420 l 326 413 b 196 283 284 409 198 387 l 196 -4 b 133 -75 196 -38 196 -75 l 83 -75 l 83 -208 l 213 -208 b 367 -23 262 -208 367 -151 l 367 286 b 479 347 367 347 451 347 l 479 480 "},"‰":{"x_min":29.9375,"x_max":1728.609375,"ha":1794,"o":"m 1728 333 b 1502 520 1725 500 1661 520 b 1286 331 1344 520 1290 498 l 1286 179 b 1504 -8 1290 12 1344 -8 b 1728 180 1661 -8 1725 13 l 1728 333 m 1612 195 b 1502 97 1612 98 1587 97 b 1401 195 1418 97 1401 98 l 1401 325 b 1502 415 1401 415 1418 415 b 1612 325 1593 415 1612 415 l 1612 195 m 1201 333 b 975 520 1199 500 1135 520 b 759 331 818 520 763 498 l 759 179 b 977 -8 763 12 818 -8 b 1201 180 1135 -8 1199 13 l 1201 333 m 1086 195 b 975 97 1086 98 1060 97 b 875 195 891 97 875 98 l 875 325 b 975 415 875 415 891 415 b 1086 325 1067 415 1086 415 l 1086 195 m 472 862 b 246 1050 469 1029 405 1050 b 29 861 88 1050 34 1027 l 29 708 b 247 520 34 541 88 520 b 472 709 405 520 469 543 l 472 862 m 356 725 b 246 626 356 627 330 626 b 145 725 161 626 145 627 l 145 854 b 246 944 145 944 161 944 b 356 854 337 944 356 944 l 356 725 m 1008 1041 l 879 1041 l 234 0 l 360 0 l 1008 1041 "},"Ä":{"x_min":-4.328125,"x_max":969.328125,"ha":985,"o":"m 703 197 l 770 0 l 969 0 l 623 1041 l 334 1041 l -4 0 l 198 0 l 262 197 l 703 197 m 660 348 l 307 348 l 481 888 l 484 888 l 660 348 m 276 1277 l 276 1155 l 410 1155 l 410 1277 l 276 1277 m 554 1277 l 554 1155 l 688 1155 l 688 1277 l 554 1277 "},"¸":{"x_min":102,"x_max":317.0625,"ha":428,"o":"m 257 -16 l 102 -112 l 138 -176 l 317 -103 l 257 -16 "},"a":{"x_min":58.53125,"x_max":715.953125,"ha":818,"o":"m 386 327 b 544 223 470 327 544 325 b 386 111 544 119 477 111 b 230 223 270 111 230 120 b 386 327 230 327 299 327 m 544 0 l 715 0 l 715 456 b 392 737 715 701 620 737 b 85 516 228 737 85 729 l 257 516 b 392 618 257 611 317 618 b 544 458 534 618 544 576 l 544 363 l 539 363 b 325 447 498 445 412 447 b 58 223 148 447 58 398 b 325 -8 58 26 163 -8 b 547 91 408 -8 513 -5 l 551 91 l 544 0 "},"—":{"x_min":0,"x_max":1361.109375,"ha":1389,"o":"m 0 450 l 0 316 l 1361 316 l 1361 450 l 0 450 "},"=":{"x_min":68.0625,"x_max":726.828125,"ha":811,"o":"m 68 462 l 726 462 l 726 595 l 68 595 l 68 462 m 68 191 l 726 191 l 726 325 l 68 325 l 68 191 "},"N":{"x_min":89.828125,"x_max":1035.8125,"ha":1149,"o":"m 856 170 l 850 170 l 413 1041 l 89 1041 l 89 0 l 285 0 l 269 870 l 276 870 l 710 0 l 1035 0 l 1035 1041 l 839 1041 l 856 170 "},"˚":{"x_min":102.078125,"x_max":352.53125,"ha":464,"o":"m 102 912 b 227 784 102 843 157 784 b 352 912 296 784 352 843 b 227 1040 352 983 296 1040 b 102 912 157 1040 102 983 m 163 912 b 227 977 163 948 191 977 b 291 912 262 977 291 948 b 227 847 291 876 262 847 b 163 912 191 847 163 876 "},"ú":{"x_min":84.390625,"x_max":721.390625,"ha":824,"o":"m 721 0 l 721 729 l 549 729 l 549 308 b 375 125 549 181 507 125 b 255 269 265 125 255 165 l 255 729 l 84 729 l 84 201 b 323 -8 85 41 181 -8 b 549 112 421 -8 510 15 l 555 112 l 555 0 l 721 0 m 509 1031 l 269 870 l 306 798 l 570 918 l 509 1031 "},"⁄":{"x_min":-3,"x_max":771,"ha":783,"o":"m 771 1041 l 641 1041 l -3 0 l 123 0 l 771 1041 "},"2":{"x_min":84.390625,"x_max":853.421875,"ha":979,"o":"m 853 163 l 269 163 l 269 198 b 511 377 269 354 326 348 b 853 729 766 420 853 454 b 479 1050 853 1004 720 1050 b 84 670 106 1050 84 925 l 269 670 b 479 886 269 884 302 886 b 668 729 623 886 668 866 b 417 522 668 540 620 559 b 84 198 189 484 84 465 l 84 0 l 853 0 l 853 163 "},"ü":{"x_min":84.390625,"x_max":721.390625,"ha":824,"o":"m 721 0 l 721 729 l 549 729 l 549 308 b 375 125 549 181 507 125 b 255 269 265 125 255 165 l 255 729 l 84 729 l 84 201 b 323 -8 85 41 181 -8 b 549 112 421 -8 510 15 l 555 112 l 555 0 l 721 0 m 197 965 l 197 843 l 332 843 l 332 965 l 197 965 m 475 965 l 475 843 l 609 843 l 609 965 l 475 965 "},"¯":{"x_min":102.078125,"x_max":477.75,"ha":592,"o":"m 102 958 l 102 852 l 477 852 l 477 958 l 102 958 "},"Z":{"x_min":34.03125,"x_max":847.96875,"ha":900,"o":"m 841 1041 l 58 1041 l 58 870 l 594 870 l 594 865 l 34 169 l 34 0 l 847 0 l 847 170 l 276 170 l 276 175 l 841 870 l 841 1041 "},"u":{"x_min":84.390625,"x_max":721.390625,"ha":824,"o":"m 721 0 l 721 729 l 549 729 l 549 308 b 375 125 549 181 507 125 b 255 269 265 125 255 165 l 255 729 l 84 729 l 84 201 b 323 -8 85 41 181 -8 b 549 112 421 -8 510 15 l 555 112 l 555 0 l 721 0 "},"˜":{"x_min":102,"x_max":628.75,"ha":746,"o":"m 544 978 b 468 915 528 949 503 915 b 258 995 412 915 330 995 b 102 876 182 995 136 939 l 189 828 b 262 886 205 860 223 886 b 470 810 318 886 391 810 b 628 931 548 810 593 867 l 544 978 "},"Ó":{"x_min":53.078125,"x_max":920.109375,"ha":993,"o":"m 484 1050 b 53 669 160 1050 53 993 l 53 388 b 484 -8 53 47 168 -8 b 920 388 793 -8 920 55 l 920 669 b 484 1050 920 1004 778 1050 m 484 879 b 724 669 658 879 728 865 l 724 388 b 484 162 724 187 662 162 b 249 388 288 162 249 181 l 249 669 b 484 879 253 834 273 879 m 575 1344 l 336 1183 l 372 1111 l 637 1230 l 575 1344 "},"k":{"x_min":83.03125,"x_max":741.8125,"ha":749,"o":"m 254 1041 l 83 1041 l 83 0 l 254 0 l 254 326 l 296 326 l 534 0 l 741 0 l 436 386 l 690 729 l 496 729 l 296 445 l 254 445 l 254 1041 "},"ˇ":{"x_min":102.4375,"x_max":587,"ha":703,"o":"m 344 811 l 587 960 l 552 1030 l 344 942 l 135 1030 l 102 960 l 344 811 "},"Ù":{"x_min":88.46875,"x_max":937.8125,"ha":1047,"o":"m 741 1041 l 741 301 b 511 162 741 188 692 162 b 284 301 322 162 284 194 l 284 1041 l 88 1041 l 88 301 b 511 -8 88 9 272 -8 b 937 301 759 -8 937 11 l 937 1041 l 741 1041 m 424 1344 l 363 1230 l 627 1111 l 664 1183 l 424 1344 "},"Ÿ":{"x_min":-14.96875,"x_max":926.921875,"ha":931,"o":"m 926 1041 l 700 1041 l 454 597 l 450 597 l 208 1041 l -14 1041 l 353 400 l 353 0 l 549 0 l 549 400 l 926 1041 m 250 1277 l 250 1155 l 385 1155 l 385 1277 l 250 1277 m 528 1277 l 528 1155 l 662 1155 l 662 1277 l 528 1277 "},"€":{"x_min":13.609375,"x_max":918.75,"ha":979,"o":"m 892 325 b 605 162 803 202 743 162 l 511 162 b 304 358 344 162 310 195 l 745 358 l 782 481 l 303 481 l 303 556 l 805 556 l 842 680 l 304 680 b 511 879 308 850 347 879 l 605 879 b 861 741 699 879 785 877 l 918 933 b 601 1050 849 1026 775 1050 l 511 1050 b 129 680 251 1050 137 981 l 50 680 l 13 556 l 127 556 l 127 481 l 50 481 l 13 358 l 129 358 b 470 -8 137 87 204 -8 l 608 -8 b 892 94 760 -8 833 15 l 892 325 "},"¢":{"x_min":153.8125,"x_max":807.640625,"ha":979,"o":"m 435 241 b 325 477 329 254 325 341 b 435 721 325 599 329 703 l 435 241 m 530 107 b 807 393 754 113 813 193 l 635 393 b 530 241 638 284 624 250 l 530 721 b 635 589 615 705 631 684 l 807 589 b 530 855 803 784 713 853 l 530 949 l 435 949 l 435 855 b 153 477 178 849 153 703 b 435 107 153 257 182 107 l 435 -9 l 530 -9 l 530 107 "},"Ω":{"x_min":76.21875,"x_max":1166.46875,"ha":1269,"o":"m 323 127 l 76 127 l 76 0 l 518 0 l 518 97 b 269 523 386 162 269 313 b 626 908 269 740 413 908 b 974 530 847 908 974 716 b 725 97 974 301 854 168 l 725 0 l 1166 0 l 1166 127 l 914 127 l 914 131 b 1143 558 1031 209 1143 352 b 624 1036 1143 802 944 1036 b 99 554 319 1036 99 825 b 323 131 99 352 210 209 l 323 127 "},"ß":{"x_min":91.1875,"x_max":764.953125,"ha":842,"o":"m 91 0 l 262 0 l 262 793 b 400 930 264 900 294 930 b 555 834 479 930 555 913 b 423 698 555 725 494 698 l 374 698 l 374 579 l 423 579 b 593 344 567 579 593 505 b 457 125 593 222 566 125 b 343 161 415 125 378 143 l 343 18 b 495 -8 392 2 443 -8 b 764 344 722 -8 764 140 b 552 644 764 504 732 634 l 552 648 b 715 834 656 662 715 723 b 416 1050 715 1020 568 1050 b 91 712 118 1050 91 959 l 91 0 "},"é":{"x_min":57.171875,"x_max":720.03125,"ha":792,"o":"m 548 231 b 386 125 548 123 481 125 b 228 331 232 125 228 175 l 720 331 b 386 737 720 650 680 737 b 57 362 98 737 57 623 b 386 -8 57 80 112 -8 b 720 231 590 -8 720 2 l 548 231 m 228 443 b 386 604 228 572 238 604 b 548 443 526 604 548 593 l 228 443 m 504 1031 l 265 870 l 302 798 l 566 918 l 504 1031 "},"s":{"x_min":57.171875,"x_max":715.953125,"ha":774,"o":"m 690 530 b 382 737 690 734 522 737 b 57 533 198 737 57 733 b 367 306 57 347 104 311 b 544 208 540 304 544 272 b 382 111 544 108 484 111 b 228 229 255 111 231 123 l 57 229 b 382 -8 57 -8 187 -8 b 715 208 563 -8 715 11 b 397 440 715 444 566 431 b 228 522 247 447 228 450 b 382 618 228 618 291 618 b 518 530 473 618 518 618 l 690 530 "},"B":{"x_min":87.109375,"x_max":920.109375,"ha":994,"o":"m 283 454 l 583 454 b 724 306 699 454 724 420 b 551 170 724 179 668 170 l 283 170 l 283 454 m 612 0 b 920 290 827 0 920 59 b 749 534 920 422 892 518 l 749 540 b 895 770 873 570 895 651 b 594 1041 895 1000 794 1041 l 87 1041 l 87 0 l 612 0 m 283 870 l 559 870 b 699 751 656 870 699 862 b 564 605 699 640 675 605 l 283 605 l 283 870 "},"…":{"x_min":141.5625,"x_max":1219.5625,"ha":1389,"o":"m 313 190 l 141 190 l 141 0 l 313 0 l 313 190 m 766 190 l 594 190 l 594 0 l 766 0 l 766 190 m 1219 190 l 1048 190 l 1048 0 l 1219 0 l 1219 190 "},"?":{"x_min":70.78125,"x_max":740.453125,"ha":826,"o":"m 446 331 l 446 355 b 559 483 446 444 487 452 b 740 755 713 548 740 602 b 419 1048 740 1009 620 1048 b 70 762 159 1048 70 1004 l 70 725 l 242 725 l 242 762 b 412 902 238 884 272 902 b 568 755 536 902 568 888 b 424 591 568 637 518 633 b 274 355 296 534 274 504 l 274 331 l 446 331 m 446 190 l 274 190 l 274 0 l 446 0 l 446 190 "},"H":{"x_min":89.828125,"x_max":956.859375,"ha":1068,"o":"m 956 1041 l 760 1041 l 760 615 l 285 615 l 285 1041 l 89 1041 l 89 0 l 285 0 l 285 444 l 760 444 l 760 0 l 956 0 l 956 1041 "},"î":{"x_min":-81.671875,"x_max":402.890625,"ha":328,"o":"m 246 729 l 74 729 l 74 0 l 246 0 l 246 729 m 160 1030 l -81 880 l -49 811 l 160 898 l 368 811 l 402 880 l 160 1030 "},"c":{"x_min":62.609375,"x_max":707.78125,"ha":765,"o":"m 536 277 b 382 125 536 150 522 125 b 234 363 231 125 234 181 b 382 604 234 551 235 604 b 536 473 502 604 536 584 l 707 473 b 382 737 707 704 594 737 b 62 363 102 737 62 619 b 382 -8 62 69 119 -8 b 707 277 623 -8 707 38 l 536 277 "},"¶":{"x_min":-2.71875,"x_max":943.25,"ha":979,"o":"m 943 -315 l 943 1041 l 374 1041 b -2 679 92 1041 -2 983 b 374 333 -2 373 107 333 l 528 333 l 528 -315 l 676 -315 l 676 877 l 794 877 l 794 -315 l 943 -315 m 528 497 l 363 497 b 182 679 220 497 182 512 b 374 877 182 862 202 877 l 528 877 l 528 497 "},"−":{"x_min":68.0625,"x_max":726.828125,"ha":811,"o":"m 68 326 l 726 326 l 726 459 l 68 459 l 68 326 "},"≠":{"x_min":80.078125,"x_max":843.90625,"ha":944,"o":"m 665 773 l 589 809 l 503 623 l 80 623 l 80 526 l 462 526 l 359 302 l 80 302 l 80 205 l 318 205 l 246 51 l 323 13 l 410 205 l 843 205 l 843 302 l 453 302 l 556 526 l 843 526 l 843 623 l 597 623 l 665 773 "},"•":{"x_min":99.328125,"x_max":609.78125,"ha":722,"o":"m 609 520 b 353 781 609 665 495 781 b 99 520 210 781 96 665 b 353 261 99 375 213 261 b 609 520 495 261 609 377 "},"¥":{"x_min":29.9375,"x_max":929.640625,"ha":979,"o":"m 759 744 l 929 1041 l 714 1041 l 479 597 l 475 597 l 242 1041 l 29 1041 l 194 744 l 72 744 l 72 593 l 274 593 l 344 473 l 72 473 l 72 322 l 382 322 l 382 0 l 567 0 l 567 322 l 887 322 l 887 473 l 605 473 l 676 593 l 887 593 l 887 744 l 759 744 "},"(":{"x_min":80.3125,"x_max":398.8125,"ha":483,"o":"m 398 -44 b 265 131 266 -44 265 43 l 265 709 b 398 886 265 825 273 886 l 398 1050 b 80 600 80 1050 83 895 l 80 233 b 398 -208 80 -88 95 -208 l 398 -44 "},"U":{"x_min":88.46875,"x_max":937.8125,"ha":1047,"o":"m 741 1041 l 741 301 b 511 162 741 188 692 162 b 284 301 322 162 284 194 l 284 1041 l 88 1041 l 88 301 b 511 -8 88 9 272 -8 b 937 301 759 -8 937 11 l 937 1041 l 741 1041 "},"◊":{"x_min":83,"x_max":882,"ha":985,"o":"m 882 508 l 547 1093 l 419 1093 l 83 508 l 416 -76 l 544 -76 l 882 508 m 736 504 l 514 111 b 485 44 504 93 491 62 l 480 44 b 451 111 476 61 465 86 l 227 511 l 447 901 b 479 970 460 925 470 950 l 481 970 b 511 901 488 951 500 923 l 736 504 "},"Ñ":{"x_min":89.828125,"x_max":1035.8125,"ha":1149,"o":"m 856 170 l 850 170 l 413 1041 l 89 1041 l 89 0 l 285 0 l 269 870 l 276 870 l 710 0 l 1035 0 l 1035 1041 l 839 1041 l 856 170 m 741 1290 b 665 1227 725 1261 700 1227 b 455 1307 609 1227 528 1307 b 299 1188 379 1307 333 1251 l 386 1140 b 460 1198 402 1172 420 1198 b 668 1122 515 1198 589 1122 b 826 1243 745 1122 790 1179 l 741 1290 "},"F":{"x_min":78.9375,"x_max":754.0625,"ha":808,"o":"m 274 870 l 754 870 l 754 1041 l 78 1041 l 78 0 l 274 0 l 274 430 l 729 430 l 729 594 l 274 594 l 274 870 "},"­":{"x_min":0,"x_max":362.0625,"ha":369,"o":"m 0 450 l 0 316 l 362 316 l 362 450 l 0 450 "},":":{"x_min":121.140625,"x_max":292.640625,"ha":489,"o":"m 292 190 l 121 190 l 121 0 l 292 0 l 292 190 m 292 729 l 121 729 l 121 538 l 292 538 l 292 729 "},"Û":{"x_min":88,"x_max":937.34375,"ha":1047,"o":"m 741 1041 l 741 301 b 511 162 741 188 692 162 b 284 301 322 162 284 194 l 284 1041 l 88 1041 l 88 301 b 511 -8 88 9 271 -8 b 937 301 759 -8 937 11 l 937 1041 l 741 1041 m 512 1343 l 270 1193 l 303 1123 l 512 1211 l 720 1123 l 754 1193 l 512 1343 "},"*":{"x_min":208.25,"x_max":751.328125,"ha":979,"o":"m 751 804 l 717 909 l 530 841 l 530 1041 l 428 1041 l 428 841 l 243 909 l 208 811 l 393 740 l 279 579 l 360 516 l 483 683 l 596 516 l 676 579 l 566 740 l 751 804 "},"†":{"x_min":125.21875,"x_max":834.359375,"ha":979,"o":"m 571 1041 l 386 1041 l 386 734 l 125 734 l 125 583 l 386 583 l 386 -315 l 571 -315 l 571 583 l 834 583 l 834 734 l 571 734 l 571 1041 "},"∕":{"x_min":-3,"x_max":771,"ha":783,"o":"m 771 1041 l 641 1041 l -3 0 l 123 0 l 771 1041 "},"°":{"x_min":68.046875,"x_max":476.390625,"ha":556,"o":"m 476 841 b 272 1050 476 955 383 1050 b 68 841 159 1050 66 955 b 272 633 68 726 159 633 b 476 841 383 633 476 726 m 382 841 b 272 729 382 779 332 729 b 161 841 210 729 161 779 b 270 954 160 902 210 954 b 382 841 332 954 382 902 "},"V":{"x_min":-15,"x_max":936.421875,"ha":940,"o":"m 733 1041 l 461 166 l 457 166 l 185 1041 l -15 1041 l 311 0 l 607 0 l 936 1041 l 733 1041 "},"å":{"x_min":58.53125,"x_max":715.953125,"ha":818,"o":"m 386 329 b 544 225 470 329 544 326 b 386 112 544 120 477 112 b 230 225 270 112 230 122 b 386 329 230 329 299 329 m 544 1 l 715 1 l 715 458 b 392 738 715 702 620 738 b 85 518 228 738 85 730 l 257 518 b 392 619 257 612 317 619 b 544 459 534 619 544 577 l 544 365 l 539 365 b 325 448 498 447 412 448 b 58 225 148 448 58 400 b 325 -6 58 27 163 -6 b 547 93 408 -6 513 -4 l 551 93 l 544 1 m 276 912 b 401 784 276 843 332 784 b 526 912 470 784 526 843 b 401 1040 526 983 470 1040 b 276 912 332 1040 276 983 m 337 912 b 401 977 337 948 366 977 b 465 912 436 977 465 948 b 401 847 465 876 436 847 b 337 912 366 847 337 876 "}," ":{"x_min":0,"x_max":0,"ha":489},"0":{"x_min":58.53125,"x_max":902.421875,"ha":979,"o":"m 480 1050 b 58 616 132 1050 58 965 l 58 425 b 480 -8 58 52 174 -8 b 902 425 786 -8 902 52 l 902 613 b 480 1050 902 986 786 1050 m 480 155 b 243 377 288 155 243 163 l 243 662 b 480 886 243 875 288 886 b 717 662 671 886 717 875 l 717 377 b 480 155 717 163 671 155 "},"”":{"x_min":65.328125,"x_max":513.140625,"ha":589,"o":"m 65 679 l 99 679 b 250 877 245 679 250 758 l 250 1041 l 78 1041 l 78 854 l 147 854 b 65 761 147 776 115 761 l 65 679 m 328 679 l 362 679 b 513 877 507 679 513 758 l 513 1041 l 341 1041 l 341 854 l 409 854 b 328 761 409 776 378 761 l 328 679 "},"¾":{"x_min":44.03125,"x_max":1368.6875,"ha":1468,"o":"m 1315 625 l 1123 625 l 853 263 l 853 127 l 1186 127 l 1186 0 l 1315 0 l 1315 127 l 1368 127 l 1368 230 l 1315 230 l 1315 625 m 1186 230 l 959 230 l 1182 525 l 1186 525 l 1186 230 m 1140 1041 l 1010 1041 l 366 0 l 492 0 l 1140 1041 m 237 687 l 325 687 b 403 600 392 687 403 661 b 275 525 403 526 376 525 b 173 630 178 525 173 527 l 44 630 b 275 416 44 423 121 416 b 532 600 431 416 532 427 b 412 737 532 681 497 730 l 412 740 b 522 886 495 748 522 812 b 275 1050 522 1048 391 1050 b 50 843 113 1050 50 1023 l 180 843 b 275 941 180 930 193 941 b 393 886 370 941 393 936 b 325 795 393 811 382 795 l 237 795 l 237 687 "},"@":{"x_min":122.5,"x_max":1204.578125,"ha":1354,"o":"m 846 765 l 830 694 l 827 694 b 698 785 809 746 749 785 b 389 433 536 785 389 590 b 586 224 389 324 475 224 b 760 304 638 224 681 239 b 902 224 796 244 834 224 b 1204 592 1087 224 1204 422 b 703 1050 1204 862 959 1050 b 122 462 383 1050 122 767 b 662 -7 122 153 404 -7 b 936 46 749 -7 858 4 l 895 150 b 662 108 824 118 736 108 b 253 486 446 108 253 264 b 703 933 253 678 430 933 b 1083 586 920 933 1083 758 b 911 330 1083 505 1015 330 b 854 403 861 330 847 361 l 952 765 l 846 765 m 677 678 b 782 582 740 678 782 646 b 615 330 782 487 726 330 b 519 455 540 330 519 386 b 677 678 519 603 623 678 "},"ö":{"x_min":59.890625,"x_max":732.28125,"ha":808,"o":"m 396 737 b 59 363 98 737 59 647 b 396 -8 59 81 98 -8 b 732 363 694 -8 732 81 b 396 737 732 647 694 737 m 396 604 b 560 362 548 604 560 559 b 396 125 560 168 548 125 b 231 362 243 125 231 168 b 396 604 231 559 243 604 m 190 965 l 190 843 l 325 843 l 325 965 l 190 965 m 468 965 l 468 843 l 602 843 l 602 965 l 468 965 "},"i":{"x_min":74.859375,"x_max":246.359375,"ha":328,"o":"m 246 729 l 74 729 l 74 0 l 246 0 l 246 729 m 246 1041 l 74 1041 l 74 893 l 246 893 l 246 1041 "},"≤":{"x_min":80.3125,"x_max":843.890625,"ha":944,"o":"m 839 141 l 839 252 l 191 543 l 191 545 l 839 834 l 839 945 l 88 595 l 88 491 l 839 141 m 843 -16 l 843 81 l 80 81 l 80 -16 l 843 -16 "},"Õ":{"x_min":53,"x_max":920.03125,"ha":993,"o":"m 484 1049 b 53 669 160 1049 53 992 l 53 388 b 484 -8 53 47 168 -8 b 920 388 793 -8 920 55 l 920 669 b 484 1049 920 1004 778 1049 m 484 879 b 724 669 658 879 728 865 l 724 388 b 484 162 724 187 662 162 b 249 388 288 162 249 181 l 249 669 b 484 879 253 834 273 879 m 665 1290 b 589 1227 649 1261 624 1227 b 379 1307 533 1227 451 1307 b 223 1188 303 1307 257 1251 l 310 1140 b 383 1198 326 1172 344 1198 b 592 1122 439 1198 513 1122 b 749 1243 669 1122 714 1179 l 665 1290 "},"þ":{"x_min":81.671875,"x_max":748.609375,"ha":828,"o":"m 424 125 b 253 343 276 125 253 187 b 424 604 253 516 249 604 b 577 343 581 604 577 508 b 424 125 577 159 543 125 m 81 -315 l 253 -315 l 253 97 l 259 97 b 475 -8 296 8 387 -8 b 748 343 720 -8 748 129 b 475 737 748 566 740 737 b 255 619 374 737 295 715 l 253 619 l 253 1041 l 81 1041 l 81 -315 "},"]":{"x_min":77.578125,"x_max":393.359375,"ha":483,"o":"m 393 -208 l 393 1050 l 77 1050 l 77 898 l 208 898 l 208 -56 l 77 -56 l 77 -208 l 393 -208 "},"m":{"x_min":85.75,"x_max":1171.921875,"ha":1283,"o":"m 85 729 l 85 0 l 257 0 l 257 411 b 423 604 257 540 284 604 b 543 476 517 604 539 568 l 543 0 l 714 0 l 714 411 b 880 604 714 540 741 604 b 1000 476 974 604 996 568 l 1000 0 l 1171 0 l 1171 493 b 925 737 1171 672 1110 737 b 699 608 830 737 732 709 l 694 608 b 481 737 675 713 571 737 b 257 623 392 737 295 716 l 251 623 l 251 729 l 85 729 "},"8":{"x_min":81.671875,"x_max":879.28125,"ha":979,"o":"m 480 456 b 694 306 669 456 694 438 b 480 155 694 183 669 155 b 266 306 291 155 266 176 b 480 456 266 430 288 456 m 480 -8 b 879 306 741 -8 879 15 b 705 534 879 436 837 515 l 705 540 b 862 772 841 566 862 643 b 480 1050 862 1063 672 1050 b 98 772 240 1050 98 1018 b 262 540 98 638 125 569 l 262 534 b 81 306 112 516 81 422 b 480 -8 81 1 259 -8 m 480 608 b 283 772 337 608 283 608 b 480 886 283 877 315 886 b 677 772 624 886 677 887 b 480 608 677 601 623 608 "},"ž":{"x_min":31.0625,"x_max":615,"ha":660,"o":"m 615 583 l 615 729 l 61 729 l 61 595 l 412 595 l 31 150 l 31 0 l 615 0 l 615 133 l 229 133 l 615 583 m 323 811 l 566 961 l 531 1030 l 323 943 l 114 1030 l 81 961 l 323 811 "},"R":{"x_min":83.03125,"x_max":913.3125,"ha":1003,"o":"m 579 344 b 709 194 673 343 709 281 l 709 0 l 905 0 l 905 194 b 732 430 905 341 871 418 l 732 436 b 913 729 905 462 913 575 b 604 1041 913 965 827 1036 l 83 1041 l 83 0 l 279 0 l 279 344 l 579 344 m 279 515 l 279 870 l 551 870 b 717 697 691 870 717 844 b 537 515 717 544 681 515 l 279 515 "},"á":{"x_min":58.53125,"x_max":715.953125,"ha":818,"o":"m 386 327 b 544 223 470 327 544 325 b 386 111 544 119 477 111 b 230 223 270 111 230 120 b 386 327 230 327 299 327 m 544 0 l 715 0 l 715 456 b 392 737 715 701 620 737 b 85 516 228 737 85 729 l 257 516 b 392 618 257 611 317 618 b 544 458 534 618 544 576 l 544 363 l 539 363 b 325 447 498 445 412 447 b 58 223 148 447 58 398 b 325 -8 58 26 163 -8 b 547 91 408 -8 513 -5 l 551 91 l 544 0 m 517 1031 l 277 870 l 314 798 l 578 918 l 517 1031 "},"×":{"x_min":68,"x_max":727,"ha":811,"o":"m 396 487 l 160 729 l 68 633 l 303 392 l 68 155 l 161 58 l 396 298 l 634 58 l 727 149 l 488 392 l 727 635 l 634 729 l 396 487 "},"o":{"x_min":59.890625,"x_max":732.28125,"ha":808,"o":"m 396 737 b 59 363 98 737 59 647 b 396 -8 59 81 98 -8 b 732 363 694 -8 732 81 b 396 737 732 647 694 737 m 396 604 b 560 362 548 604 560 559 b 396 125 560 168 548 125 b 231 362 243 125 231 168 b 396 604 231 559 243 604 "},"5":{"x_min":92.5625,"x_max":865.671875,"ha":979,"o":"m 287 890 l 827 890 l 827 1041 l 115 1041 l 115 486 l 287 486 b 476 555 303 555 377 555 b 680 354 653 555 680 533 b 475 155 680 173 653 155 b 277 300 351 155 277 155 l 92 300 b 460 -8 99 29 210 -8 b 865 358 762 -8 865 33 b 532 719 865 619 796 719 b 289 633 451 719 334 712 l 287 633 l 287 890 "},"õ":{"x_min":60.21875,"x_max":732.609375,"ha":808,"o":"m 396 737 b 60 364 98 737 60 647 b 396 -7 60 82 98 -7 b 732 364 694 -7 732 82 b 396 737 732 647 694 737 m 396 604 b 561 362 548 604 561 560 b 396 125 561 168 548 125 b 231 362 243 125 231 168 b 396 604 231 560 243 604 m 576 978 b 499 915 559 949 535 915 b 290 995 444 915 362 995 b 133 876 214 995 167 939 l 220 828 b 294 886 237 860 254 886 b 502 810 350 886 423 810 b 660 931 580 810 625 867 l 576 978 "},"7":{"x_min":88.03125,"x_max":844.9375,"ha":979,"o":"m 844 1041 l 88 1041 l 88 870 l 658 870 l 217 0 l 428 0 l 844 850 l 844 1041 "},"K":{"x_min":89.828125,"x_max":1000.421875,"ha":993,"o":"m 285 1041 l 89 1041 l 89 0 l 285 0 l 285 445 l 377 445 l 752 0 l 1000 0 l 544 533 l 958 1041 l 717 1041 l 377 616 l 285 616 l 285 1041 "},",":{"x_min":121.140625,"x_max":306.25,"ha":489,"o":"m 121 -175 l 155 -175 b 306 23 300 -175 306 -95 l 306 187 l 134 187 l 134 0 l 202 0 b 121 -93 202 -77 171 -93 l 121 -175 "},"d":{"x_min":55.8125,"x_max":722.75,"ha":824,"o":"m 379 604 b 548 386 528 604 548 541 b 379 125 548 212 555 125 b 227 386 223 125 227 220 b 379 604 227 569 261 604 m 551 0 l 722 0 l 722 1041 l 551 1041 l 551 631 l 544 631 b 329 737 507 720 416 737 b 55 386 84 737 55 600 b 329 -8 55 162 63 -8 b 552 109 430 -8 509 13 l 558 109 l 551 0 "},"¨":{"x_min":102.078125,"x_max":514.5,"ha":629,"o":"m 102 965 l 102 843 l 236 843 l 236 965 l 102 965 m 379 965 l 379 843 l 514 843 l 514 965 l 379 965 "},"Ô":{"x_min":53,"x_max":920.03125,"ha":993,"o":"m 484 1050 b 53 669 160 1050 53 993 l 53 388 b 484 -8 53 47 168 -8 b 920 388 793 -8 920 55 l 920 669 b 484 1050 920 1004 778 1050 m 484 879 b 724 669 658 879 728 865 l 724 388 b 484 162 724 187 662 162 b 249 388 288 162 249 181 l 249 669 b 484 879 253 834 273 879 m 487 1343 l 244 1193 l 277 1123 l 487 1211 l 695 1123 l 729 1193 l 487 1343 "},"E":{"x_min":76.21875,"x_max":779.921875,"ha":860,"o":"m 272 870 l 775 870 l 775 1041 l 76 1041 l 76 0 l 779 0 l 779 170 l 272 170 l 272 447 l 749 447 l 749 611 l 272 611 l 272 870 "},"Y":{"x_min":-14.96875,"x_max":926.921875,"ha":931,"o":"m 926 1041 l 700 1041 l 454 597 l 450 597 l 208 1041 l -14 1041 l 353 400 l 353 0 l 549 0 l 549 400 l 926 1041 "},"\"":{"x_min":68.0625,"x_max":577.109375,"ha":658,"o":"m 68 1041 l 68 861 l 125 681 l 198 681 l 255 861 l 255 1041 l 68 1041 m 389 1041 l 389 861 l 446 681 l 519 681 l 577 861 l 577 1041 l 389 1041 "},"‹":{"x_min":69,"x_max":373,"ha":451,"o":"m 247 749 l 69 382 l 262 18 l 373 88 l 218 382 l 363 682 l 247 749 "},"˙":{"x_min":102.078125,"x_max":236.828125,"ha":346,"o":"m 236 965 l 102 965 l 102 843 l 236 843 l 236 965 "},"ê":{"x_min":57.265625,"x_max":720.125,"ha":792,"o":"m 548 231 b 386 125 548 123 481 125 b 228 331 232 125 228 175 l 720 331 b 386 737 720 650 680 737 b 57 362 98 737 57 623 b 386 -8 57 80 113 -8 b 720 231 590 -8 720 2 l 548 231 m 228 443 b 386 604 228 572 238 604 b 548 443 526 604 548 593 l 228 443 m 388 1030 l 145 880 l 178 811 l 388 898 l 596 811 l 630 880 l 388 1030 "},"Ï":{"x_min":-46.28125,"x_max":366.140625,"ha":383,"o":"m 285 1041 l 89 1041 l 89 0 l 285 0 l 285 1041 m -46 1277 l -46 1155 l 88 1155 l 88 1277 l -46 1277 m 231 1277 l 231 1155 l 366 1155 l 366 1277 l 231 1277 "},"„":{"x_min":62.609375,"x_max":507.6875,"ha":589,"o":"m 62 -175 l 96 -175 b 247 23 242 -175 247 -95 l 247 187 l 76 187 l 76 0 l 144 0 b 62 -93 144 -77 112 -93 l 62 -175 m 322 -175 l 356 -175 b 507 23 502 -175 507 -95 l 507 187 l 336 187 l 336 0 l 404 0 b 322 -93 404 -77 372 -93 l 322 -175 "},"Â":{"x_min":-4,"x_max":969,"ha":985,"o":"m 703 197 l 770 0 l 969 0 l 623 1041 l 334 1041 l -4 0 l 198 0 l 262 197 l 703 197 m 660 348 l 307 348 l 481 888 l 484 888 l 660 348 m 483 1343 l 240 1193 l 273 1123 l 483 1211 l 691 1123 l 725 1193 l 483 1343 "},"Í":{"x_min":38.109375,"x_max":338.921875,"ha":383,"o":"m 285 1041 l 89 1041 l 89 0 l 285 0 l 285 1041 m 277 1344 l 38 1183 l 74 1111 l 338 1230 l 277 1344 "},"´":{"x_min":102,"x_max":402.8125,"ha":515,"o":"m 341 1032 l 102 871 l 138 799 l 402 918 l 341 1032 "},"ì":{"x_min":10.890625,"x_max":311.6875,"ha":328,"o":"m 246 729 l 74 729 l 74 0 l 246 0 l 246 729 m 72 1031 l 10 918 l 274 798 l 311 870 l 72 1031 "},"±":{"x_min":68.0625,"x_max":726.828125,"ha":811,"o":"m 332 729 l 332 541 l 68 541 l 68 408 l 332 408 l 332 220 l 462 220 l 462 408 l 726 408 l 726 541 l 462 541 l 462 729 l 332 729 m 68 0 l 726 0 l 726 133 l 68 133 l 68 0 "},"Ú":{"x_min":88.46875,"x_max":937.8125,"ha":1047,"o":"m 741 1041 l 741 301 b 511 162 741 188 692 162 b 284 301 322 162 284 194 l 284 1041 l 88 1041 l 88 301 b 511 -8 88 9 272 -8 b 937 301 759 -8 937 11 l 937 1041 l 741 1041 m 602 1344 l 363 1183 l 400 1111 l 664 1230 l 602 1344 "},"|":{"x_min":125.21875,"x_max":255.890625,"ha":389,"o":"m 255 1041 l 125 1041 l 125 -347 l 255 -347 l 255 1041 "},"§":{"x_min":71.921875,"x_max":887.234375,"ha":979,"o":"m 586 472 b 715 352 703 443 715 430 b 638 226 715 291 704 226 b 566 240 620 226 583 236 l 360 288 b 246 406 270 309 246 322 b 330 531 246 468 255 531 b 410 516 352 531 389 522 l 586 472 m 90 1 l 90 -20 b 481 -323 90 -302 221 -323 b 883 -36 718 -323 883 -320 b 790 165 883 51 877 136 l 790 168 b 887 386 873 195 887 302 b 653 611 887 561 801 576 l 425 663 b 291 788 323 687 291 693 b 481 886 291 865 311 886 b 670 743 649 886 666 870 l 847 743 l 847 781 b 481 1050 847 1041 707 1050 b 105 788 236 1050 105 1030 b 180 586 105 705 111 627 b 71 386 81 562 71 473 b 255 155 71 225 107 188 l 590 80 b 698 -36 666 63 698 51 b 481 -159 698 -136 662 -159 b 267 1 274 -159 272 -129 l 90 1 "},"Ý":{"x_min":-14.96875,"x_max":926.921875,"ha":931,"o":"m 926 1041 l 700 1041 l 454 597 l 450 597 l 208 1041 l -14 1041 l 353 400 l 353 0 l 549 0 l 549 400 l 926 1041 m 570 1344 l 330 1183 l 367 1111 l 631 1230 l 570 1344 "},"b":{"x_min":78.9375,"x_max":745.890625,"ha":825,"o":"m 421 604 b 574 386 540 604 574 569 b 421 125 574 220 578 125 b 250 386 246 125 250 212 b 421 604 250 541 273 604 m 78 0 l 250 0 l 243 109 l 249 109 b 472 -8 292 13 371 -8 b 745 386 737 -8 745 162 b 472 737 745 600 717 737 b 257 631 385 737 294 720 l 250 631 l 250 1041 l 78 1041 l 78 0 "},"q":{"x_min":61.25,"x_max":728.203125,"ha":829,"o":"m 385 604 b 556 386 533 604 556 541 b 385 125 556 212 560 125 b 232 386 228 125 232 220 b 385 604 232 569 266 604 m 728 729 l 556 729 l 563 619 l 558 619 b 334 737 514 715 435 737 b 61 343 69 737 61 566 b 334 -8 61 129 89 -8 b 549 97 421 -8 513 8 l 556 97 l 556 -315 l 728 -315 l 728 729 "},"Ω":{"x_min":76.21875,"x_max":1166.46875,"ha":1269,"o":"m 323 127 l 76 127 l 76 0 l 518 0 l 518 97 b 269 523 386 162 269 313 b 626 908 269 740 413 908 b 974 530 847 908 974 716 b 725 97 974 301 854 168 l 725 0 l 1166 0 l 1166 127 l 914 127 l 914 131 b 1143 558 1031 209 1143 352 b 624 1036 1143 802 944 1036 b 99 554 319 1036 99 825 b 323 131 99 352 210 209 l 323 127 "},"Ö":{"x_min":53.078125,"x_max":920.109375,"ha":993,"o":"m 484 1050 b 53 669 160 1050 53 993 l 53 388 b 484 -8 53 47 168 -8 b 920 388 793 -8 920 55 l 920 669 b 484 1050 920 1004 778 1050 m 484 879 b 724 669 658 879 728 865 l 724 388 b 484 162 724 187 662 162 b 249 388 288 162 249 181 l 249 669 b 484 879 253 834 273 879 m 280 1277 l 280 1155 l 415 1155 l 415 1277 l 280 1277 m 558 1277 l 558 1155 l 692 1155 l 692 1277 l 558 1277 "},"ﬂ":{"x_min":19.0625,"x_max":724.109375,"ha":828,"o":"m 724 1041 l 552 1041 l 552 0 l 724 0 l 724 1041 m 465 729 l 291 729 l 291 773 b 408 908 291 863 291 912 l 460 908 l 460 1041 l 348 1041 b 119 793 160 1041 119 968 l 119 729 l 19 729 l 19 595 l 119 595 l 119 0 l 291 0 l 291 595 l 465 595 l 465 729 "},"z":{"x_min":31.0625,"x_max":614.984375,"ha":660,"o":"m 614 583 l 614 729 l 61 729 l 61 595 l 412 595 l 31 150 l 31 0 l 614 0 l 614 133 l 229 133 l 614 583 "},"™":{"x_min":96.640625,"x_max":1264.46875,"ha":1389,"o":"m 1264 1041 l 1071 1041 l 947 709 l 823 1041 l 630 1041 l 630 480 l 749 480 l 749 933 l 752 933 l 911 480 l 982 480 l 1141 933 l 1144 933 l 1144 480 l 1264 480 l 1264 1041 m 563 1041 l 96 1041 l 96 933 l 264 933 l 264 480 l 396 480 l 396 933 l 563 933 l 563 1041 "},"ã":{"x_min":59.234375,"x_max":716.640625,"ha":818,"o":"m 387 328 b 545 223 471 328 545 325 b 387 111 545 119 478 111 b 230 223 271 111 230 121 b 387 328 230 328 300 328 m 545 0 l 716 0 l 716 457 b 392 737 716 701 621 737 b 86 517 229 737 86 729 l 257 517 b 392 618 257 611 317 618 b 545 458 535 618 545 576 l 545 364 l 539 364 b 326 447 498 446 413 447 b 59 223 149 447 59 398 b 326 -7 59 26 164 -7 b 547 92 409 -7 513 -5 l 551 92 l 545 0 m 580 978 b 504 915 564 949 539 915 b 294 995 448 915 366 995 b 138 876 218 995 172 939 l 225 828 b 298 886 241 860 259 886 b 507 810 354 886 428 810 b 664 931 584 810 629 867 l 580 978 "},"æ":{"x_min":51.71875,"x_max":1200.5,"ha":1278,"o":"m 709 443 b 867 604 709 572 718 604 b 1029 443 1007 604 1029 593 l 709 443 m 379 327 b 537 223 464 327 537 325 b 379 111 537 119 470 111 b 223 223 264 111 223 120 b 379 327 223 327 292 327 m 537 361 l 532 361 b 318 447 491 445 405 447 b 51 223 141 447 51 398 b 318 -8 51 26 156 -8 b 605 106 436 -8 568 -4 l 609 106 b 867 -8 645 0 773 -8 b 1200 231 1071 -8 1200 2 l 1029 231 b 867 125 1029 123 962 125 b 709 331 713 125 709 175 l 1200 331 b 867 737 1200 650 1161 737 b 632 643 796 737 664 733 l 628 643 b 385 737 602 741 439 737 b 78 516 221 737 78 729 l 250 516 b 385 618 250 611 310 618 b 537 458 528 618 537 576 l 537 361 "},"®":{"x_min":19.0625,"x_max":1056.21875,"ha":1097,"o":"m 537 -8 b 1056 520 822 -8 1056 229 b 537 1050 1056 812 822 1050 b 19 520 250 1050 19 812 b 537 -8 19 229 250 -8 m 537 91 b 117 520 303 91 117 281 b 537 950 117 759 303 950 b 958 520 770 950 958 759 b 537 91 958 281 770 91 m 660 475 b 811 645 758 481 811 523 b 594 804 811 783 706 804 l 323 804 l 323 233 l 432 233 l 432 475 l 543 475 l 668 233 l 794 233 l 660 475 m 432 558 l 432 720 l 568 720 b 702 645 623 720 702 722 b 597 558 702 573 660 558 l 432 558 "},"É":{"x_min":76.21875,"x_max":779.921875,"ha":860,"o":"m 272 870 l 775 870 l 775 1041 l 76 1041 l 76 0 l 779 0 l 779 170 l 272 170 l 272 447 l 749 447 l 749 611 l 272 611 l 272 870 m 537 1344 l 298 1183 l 334 1111 l 598 1230 l 537 1344 "},"~":{"x_min":68.046875,"x_max":726.84375,"ha":811,"o":"m 613 479 b 555 391 615 445 605 391 b 475 418 534 391 509 397 l 330 500 b 255 523 303 515 279 523 b 68 304 140 523 66 411 l 181 304 b 235 394 185 336 196 394 b 298 375 250 394 272 388 l 460 291 b 567 262 503 269 537 262 b 726 479 662 262 728 381 l 613 479 "},"³":{"x_min":43.5625,"x_max":532.1875,"ha":588,"o":"m 236 687 l 325 687 b 402 600 392 687 402 661 b 274 525 402 526 375 525 b 172 630 178 525 172 527 l 43 630 b 274 416 43 423 121 416 b 532 600 431 416 532 427 b 412 737 532 681 496 730 l 412 740 b 522 886 495 748 522 812 b 274 1050 522 1048 390 1050 b 50 843 112 1050 50 1023 l 179 843 b 274 941 179 930 193 941 b 393 886 370 941 393 936 b 325 795 393 811 382 795 l 236 795 l 236 687 "},"¡":{"x_min":112.96875,"x_max":306.25,"ha":429,"o":"m 295 727 l 123 727 l 123 537 l 295 537 l 295 727 m 112 -313 l 306 -313 l 295 379 l 123 379 l 112 -313 "},"[":{"x_min":80.3125,"x_max":396.078125,"ha":483,"o":"m 80 1050 l 80 -208 l 396 -208 l 396 -56 l 265 -56 l 265 898 l 396 898 l 396 1050 l 80 1050 "},"L":{"x_min":89.828125,"x_max":762.21875,"ha":785,"o":"m 285 1041 l 89 1041 l 89 0 l 762 0 l 762 170 l 285 170 l 285 1041 "}," ":{"x_min":0,"x_max":0,"ha":489},"∑":{"x_min":33.765625,"x_max":906.140625,"ha":958,"o":"m 906 -141 l 906 1 l 255 1 l 255 5 l 652 452 l 286 873 l 286 879 l 878 879 l 878 1016 l 54 1016 l 54 908 l 462 433 l 33 -45 l 33 -141 l 906 -141 "},"%":{"x_min":29.9375,"x_max":1201.859375,"ha":1257,"o":"m 1201 333 b 975 520 1199 500 1135 520 b 759 331 818 520 763 498 l 759 179 b 977 -8 763 12 818 -8 b 1201 180 1135 -8 1199 13 l 1201 333 m 1086 195 b 975 97 1086 98 1060 97 b 875 195 891 97 875 98 l 875 325 b 975 415 875 415 891 415 b 1086 325 1067 415 1086 415 l 1086 195 m 472 862 b 246 1050 469 1029 405 1050 b 29 861 88 1050 34 1027 l 29 708 b 247 520 34 541 88 520 b 472 709 405 520 469 543 l 472 862 m 356 725 b 246 626 356 627 330 626 b 145 725 161 626 145 627 l 145 854 b 246 944 145 944 161 944 b 356 854 337 944 356 944 l 356 725 m 1008 1041 l 879 1041 l 234 0 l 360 0 l 1008 1041 "},"P":{"x_min":76.21875,"x_max":891.53125,"ha":953,"o":"m 76 0 l 272 0 l 272 337 l 528 337 b 891 683 794 337 891 388 b 528 1041 891 975 801 1041 l 76 1041 l 76 0 m 272 508 l 272 870 l 528 870 b 695 683 675 872 695 830 b 528 508 695 537 668 511 l 272 508 "},"∏":{"x_min":35.390625,"x_max":1151.5,"ha":1214,"o":"m 1151 877 l 1151 1018 l 35 1018 l 35 877 l 220 877 l 220 -140 l 382 -140 l 382 877 l 805 877 l 805 -140 l 967 -140 l 967 877 l 1151 877 "},"À":{"x_min":-4,"x_max":969,"ha":985,"o":"m 703 197 l 770 0 l 969 0 l 623 1041 l 334 1041 l -4 0 l 198 0 l 262 197 l 703 197 m 660 348 l 307 348 l 481 888 l 484 888 l 660 348 m 420 1344 l 359 1230 l 623 1111 l 660 1183 l 420 1344 "},"_":{"x_min":0,"x_max":680.5625,"ha":694,"o":"m 680 -104 l 0 -104 l 0 -173 l 680 -173 l 680 -104 "},"ñ":{"x_min":84.171875,"x_max":730.703125,"ha":831,"o":"m 84 729 l 84 0 l 255 0 l 255 401 b 425 604 255 532 276 604 b 559 462 536 604 559 568 l 559 0 l 730 0 l 730 480 b 485 737 730 658 673 737 b 261 619 384 737 299 726 l 255 619 l 255 729 l 84 729 m 586 978 b 510 915 570 949 545 915 b 300 995 454 915 372 995 b 144 876 224 995 178 939 l 231 828 b 304 886 247 860 265 886 b 512 810 360 886 433 810 b 670 931 590 810 635 867 l 586 978 "},"+":{"x_min":68.0625,"x_max":726.828125,"ha":811,"o":"m 332 729 l 332 459 l 68 459 l 68 326 l 332 326 l 332 56 l 462 56 l 462 326 l 726 326 l 726 459 l 462 459 l 462 729 l 332 729 "},"‚":{"x_min":62.609375,"x_max":247.71875,"ha":350,"o":"m 62 -175 l 96 -175 b 247 23 242 -175 247 -95 l 247 187 l 76 187 l 76 0 l 144 0 b 62 -93 144 -77 112 -93 l 62 -175 "},"½":{"x_min":52.625,"x_max":1371.53125,"ha":1468,"o":"m 1089 1041 l 960 1041 l 315 0 l 441 0 l 1089 1041 m 409 1041 l 248 1041 l 52 853 l 120 772 l 279 935 l 279 416 l 409 416 l 409 1041 m 1371 108 l 1039 108 l 1039 126 b 1166 221 1038 207 1068 204 b 1371 432 1318 247 1371 266 b 1146 625 1371 597 1291 625 b 910 397 922 625 910 550 l 1039 397 b 1146 523 1039 522 1059 523 b 1242 432 1219 523 1242 511 b 1110 308 1242 318 1217 330 b 910 114 972 285 910 273 l 910 0 l 1371 0 l 1371 108 "},"Æ":{"x_min":-23.140625,"x_max":1386.96875,"ha":1471,"o":"m 694 348 l 348 348 l 592 870 l 694 870 l 694 348 m 694 0 l 1386 0 l 1386 170 l 890 170 l 890 452 l 1357 452 l 1357 604 l 890 604 l 890 870 l 1386 870 l 1386 1041 l 458 1041 l -23 0 l 191 0 l 285 197 l 694 197 l 694 0 "},"Ë":{"x_min":76.21875,"x_max":779.921875,"ha":860,"o":"m 272 870 l 775 870 l 775 1041 l 76 1041 l 76 0 l 779 0 l 779 170 l 272 170 l 272 447 l 749 447 l 749 611 l 272 611 l 272 870 m 215 1277 l 215 1155 l 349 1155 l 349 1277 l 215 1277 m 492 1277 l 492 1155 l 627 1155 l 627 1277 l 492 1277 "},"'":{"x_min":68.0625,"x_max":255.890625,"ha":331,"o":"m 68 1041 l 68 861 l 125 681 l 198 681 l 255 861 l 255 1041 l 68 1041 "},"Š":{"x_min":44.796875,"x_max":871,"ha":935,"o":"m 44 331 l 44 283 b 472 -8 44 -15 246 -8 b 871 309 734 -8 871 16 b 470 611 871 575 785 591 b 246 755 272 623 246 627 b 472 886 246 866 277 886 b 654 769 609 886 654 881 l 654 736 l 850 736 l 850 769 b 472 1050 850 1043 680 1050 b 50 755 227 1050 50 1041 b 444 447 50 452 224 461 b 675 309 597 438 675 458 b 472 155 675 188 650 155 b 240 283 291 155 240 163 l 240 331 l 44 331 m 458 1123 l 700 1273 l 666 1343 l 458 1255 l 248 1343 l 216 1273 l 458 1123 "},"ª":{"x_min":80.3125,"x_max":492.71875,"ha":611,"o":"m 378 604 l 492 604 l 492 898 b 291 1050 492 1034 412 1050 b 95 912 193 1050 95 1050 l 212 912 b 291 973 209 970 243 973 b 375 891 375 973 377 937 l 375 836 l 372 836 b 246 875 352 875 287 875 b 80 737 145 875 80 850 b 243 598 80 623 142 598 b 378 650 298 598 348 598 l 381 647 l 378 604 m 284 675 b 197 744 225 675 197 677 b 283 798 197 798 236 798 b 377 741 343 798 377 793 b 284 675 377 682 341 675 "},"Œ":{"x_min":53.078125,"x_max":1453.671875,"ha":1535,"o":"m 494 162 b 249 402 277 162 249 180 l 249 683 b 494 879 249 825 272 879 b 755 641 720 879 755 852 l 755 400 b 494 162 755 195 721 162 m 951 870 l 1449 870 l 1449 1041 l 767 1041 l 771 923 l 767 923 b 466 1050 715 1048 564 1050 b 53 683 181 1050 53 961 l 53 402 b 466 -8 53 91 140 -8 b 767 112 594 -8 703 2 l 771 112 l 767 0 l 1453 0 l 1453 170 l 951 170 l 951 452 l 1423 452 l 1423 604 l 951 604 l 951 870 "},"˛":{"x_min":102.078125,"x_max":323.9375,"ha":435,"o":"m 205 5 b 102 -147 149 -30 102 -77 b 246 -270 102 -229 174 -270 b 322 -255 272 -270 298 -263 l 322 -165 b 257 -181 299 -176 281 -181 b 191 -126 223 -181 191 -163 b 323 -5 191 -79 273 -29 l 323 5 l 205 5 "},"ð":{"x_min":60.359375,"x_max":746.09375,"ha":808,"o":"m 396 604 b 561 362 548 604 561 559 b 396 124 561 168 548 124 b 231 362 244 124 231 168 b 396 604 231 559 244 604 m 246 1008 b 362 918 297 976 329 948 l 184 862 l 260 787 l 433 841 b 520 680 468 795 498 741 b 325 738 457 736 378 738 b 60 363 87 738 60 595 b 396 -8 60 81 98 -8 b 731 391 694 -8 731 93 b 571 884 731 576 691 734 l 746 938 l 672 1015 l 499 961 b 381 1049 467 993 427 1023 l 246 1008 "},"T":{"x_min":2.71875,"x_max":797.609375,"ha":815,"o":"m 498 870 l 797 870 l 797 1041 l 2 1041 l 2 870 l 302 870 l 302 0 l 498 0 l 498 870 "},"š":{"x_min":57.890625,"x_max":716.671875,"ha":774,"o":"m 690 530 b 383 737 690 734 523 737 b 57 533 199 737 57 733 b 368 306 57 347 105 311 b 545 208 541 304 545 272 b 383 111 545 108 485 111 b 229 229 256 111 232 123 l 57 229 b 383 -8 57 -8 188 -8 b 716 208 564 -8 716 11 b 398 440 716 444 566 431 b 229 522 248 447 229 450 b 383 618 229 618 292 618 b 519 530 474 618 519 618 l 690 530 m 380 811 l 622 961 l 588 1030 l 380 943 l 170 1030 l 138 961 l 380 811 "},"℮":{"x_min":49.484375,"x_max":1200.984375,"ha":1276,"o":"m 1200 505 l 1200 520 b 623 1050 1200 812 943 1050 b 49 520 306 1050 49 812 b 623 -6 49 229 306 -6 b 1079 197 810 -6 977 73 l 996 197 b 625 22 906 91 774 22 b 272 179 487 22 363 83 b 260 211 265 188 260 198 l 260 500 b 268 505 260 504 263 505 l 1200 505 m 990 543 b 983 534 990 540 987 534 l 268 534 b 260 543 263 534 260 540 l 260 826 b 274 862 260 841 265 854 b 625 1018 365 956 489 1018 b 975 868 762 1018 885 958 b 990 833 984 858 990 845 l 990 543 "},"Þ":{"x_min":76.21875,"x_max":891.53125,"ha":953,"o":"m 76 0 l 272 0 l 272 168 l 528 168 b 891 513 794 168 891 219 b 528 872 891 805 801 872 l 272 872 l 272 1041 l 76 1041 l 76 0 m 272 338 l 272 701 l 528 701 b 695 513 675 702 695 661 b 528 338 695 368 668 341 l 272 338 "},"j":{"x_min":-16.328125,"x_max":239.5625,"ha":313,"o":"m 239 729 l 68 729 l 68 -33 b -16 -122 68 -84 59 -122 l -16 -247 b 47 -255 5 -252 25 -255 b 239 -16 204 -255 239 -158 l 239 729 m 239 1041 l 68 1041 l 68 893 l 239 893 l 239 1041 "},"1":{"x_min":107.53125,"x_max":669.671875,"ha":979,"o":"m 669 1041 l 434 1041 l 107 727 l 219 604 l 484 875 l 484 0 l 669 0 l 669 1041 "},"›":{"x_min":69,"x_max":372.765625,"ha":451,"o":"m 193 749 l 77 682 l 223 382 l 69 88 l 178 18 l 372 382 l 193 749 "},"ı":{"x_min":74.859375,"x_max":246.359375,"ha":328,"o":"m 246 729 l 74 729 l 74 0 l 246 0 l 246 729 "},"ℓ":{"x_min":46.28125,"x_max":812.578125,"ha":869,"o":"m 737 279 b 507 129 692 206 608 129 b 340 309 421 129 343 188 l 338 344 b 687 877 552 526 687 690 b 457 1131 687 1011 616 1131 b 179 751 308 1131 179 1031 l 179 381 b 46 283 137 348 91 318 l 93 194 b 182 258 123 215 153 238 b 183 244 182 254 182 248 b 469 -2 204 108 291 -2 b 812 208 602 -2 728 59 l 737 279 m 338 784 b 462 1019 338 963 406 1019 b 567 873 539 1019 567 958 b 338 490 567 750 469 618 l 338 784 "},"ä":{"x_min":58.53125,"x_max":715.953125,"ha":818,"o":"m 386 327 b 544 223 470 327 544 325 b 386 111 544 119 477 111 b 230 223 270 111 230 120 b 386 327 230 327 299 327 m 544 0 l 715 0 l 715 456 b 392 737 715 701 620 737 b 85 516 228 737 85 729 l 257 516 b 392 618 257 611 317 618 b 544 458 534 618 544 576 l 544 363 l 539 363 b 325 447 498 445 412 447 b 58 223 148 447 58 398 b 325 -8 58 26 163 -8 b 547 91 408 -8 513 -5 l 551 91 l 544 0 m 194 965 l 194 843 l 329 843 l 329 965 l 194 965 m 472 965 l 472 843 l 607 843 l 607 965 l 472 965 "},"<":{"x_min":68.0625,"x_max":726.84375,"ha":811,"o":"m 68 344 l 726 56 l 726 195 l 253 392 l 726 590 l 726 729 l 68 441 l 68 344 "},"£":{"x_min":66.6875,"x_max":922.828125,"ha":979,"o":"m 658 544 l 385 544 l 385 733 b 559 886 385 869 426 886 b 728 758 703 886 728 858 l 728 713 l 913 713 l 913 758 b 543 1050 913 1033 784 1050 b 200 711 281 1050 198 983 l 200 544 l 66 544 l 66 393 l 200 393 l 200 316 b 95 163 197 241 183 172 l 95 0 l 922 0 l 922 168 l 310 159 l 310 163 b 385 334 383 204 385 252 l 385 393 l 658 393 l 658 544 "},"¹":{"x_min":63.96875,"x_max":420.578125,"ha":588,"o":"m 420 1049 l 259 1049 l 63 861 l 132 780 l 291 943 l 291 424 l 420 424 l 420 1049 "},"t":{"x_min":-2.578125,"x_max":569.171875,"ha":590,"o":"m -2 595 l 87 595 l 87 220 b 332 -8 87 36 144 -8 b 569 279 517 -8 571 58 l 418 279 b 332 125 418 202 428 125 b 258 222 260 125 260 155 l 258 595 l 532 595 l 532 729 l 258 729 l 258 894 l 87 894 l 87 729 l -2 729 l -2 595 "},"¬":{"x_min":68.0625,"x_max":726.828125,"ha":811,"o":"m 596 168 l 726 168 l 726 595 l 68 595 l 68 462 l 596 462 l 596 168 "},"ù":{"x_min":84.34375,"x_max":721.34375,"ha":824,"o":"m 721 0 l 721 729 l 549 729 l 549 308 b 375 125 549 181 507 125 b 255 269 265 125 255 165 l 255 729 l 84 729 l 84 201 b 323 -8 85 41 180 -8 b 549 112 421 -8 510 15 l 555 112 l 555 0 l 721 0 m 259 1031 l 198 918 l 462 798 l 499 870 l 259 1031 "},"W":{"x_min":-4,"x_max":1520,"ha":1546,"o":"m 1102 163 l 1098 163 l 869 1041 l 643 1041 l 409 163 l 404 163 l 191 1041 l -4 1041 l 261 0 l 541 0 l 752 794 l 758 794 l 962 0 l 1245 0 l 1520 1041 l 1322 1041 l 1102 163 "},"ï":{"x_min":-44.921875,"x_max":367.5,"ha":328,"o":"m 246 729 l 74 729 l 74 0 l 246 0 l 246 729 m -44 965 l -44 843 l 89 843 l 89 965 l -44 965 m 232 965 l 232 843 l 367 843 l 367 965 l 232 965 "},">":{"x_min":68.15625,"x_max":726.9375,"ha":811,"o":"m 726 441 l 68 729 l 68 590 l 541 392 l 68 195 l 68 56 l 726 344 l 726 441 "},"v":{"x_min":-7,"x_max":676,"ha":682,"o":"m 676 729 l 496 729 l 339 119 l 335 119 l 168 729 l -7 729 l 209 0 l 467 0 l 676 729 "},"û":{"x_min":84.15625,"x_max":721.15625,"ha":824,"o":"m 721 0 l 721 729 l 549 729 l 549 308 b 375 125 549 181 507 125 b 255 269 265 125 255 165 l 255 729 l 84 729 l 84 201 b 323 -8 85 41 180 -8 b 549 112 421 -8 510 15 l 555 112 l 555 0 l 721 0 m 376 1030 l 134 880 l 167 811 l 376 898 l 585 811 l 619 880 l 376 1030 "},"Ò":{"x_min":53.078125,"x_max":920.109375,"ha":993,"o":"m 484 1050 b 53 669 160 1050 53 993 l 53 388 b 484 -8 53 47 168 -8 b 920 388 793 -8 920 55 l 920 669 b 484 1050 920 1004 778 1050 m 484 879 b 724 669 658 879 728 865 l 724 388 b 484 162 724 187 662 162 b 249 388 288 162 249 181 l 249 669 b 484 879 253 834 273 879 m 397 1344 l 336 1230 l 600 1111 l 637 1183 l 397 1344 "},"&":{"x_min":80.21875,"x_max":1052.28125,"ha":1085,"o":"m 712 218 b 502 155 667 155 600 155 b 263 316 330 155 263 151 b 377 506 263 436 265 488 l 712 218 m 959 0 l 1052 115 l 906 245 b 927 441 927 306 927 376 l 927 512 l 759 512 l 759 372 l 435 659 b 372 783 390 697 372 722 b 517 886 372 883 423 886 b 665 723 660 886 665 865 l 833 723 b 517 1050 833 1002 774 1050 b 189 784 304 1050 189 1016 b 274 600 189 693 206 659 b 80 316 106 586 80 470 b 502 -8 80 15 239 -8 b 838 106 637 -8 776 -5 l 959 0 "},"˝":{"x_min":102,"x_max":630.0625,"ha":747,"o":"m 273 1057 l 102 821 l 160 767 l 368 969 l 273 1057 m 533 1057 l 361 821 l 421 767 l 630 969 l 533 1057 "},"Ð":{"x_min":-39.46875,"x_max":973.203125,"ha":1047,"o":"m 280 870 l 571 870 b 777 654 721 870 777 827 l 777 408 b 604 170 777 291 736 170 l 280 170 l 280 459 l 518 459 l 518 611 l 280 611 l 280 870 m 84 611 l -39 611 l -39 459 l 84 459 l 84 0 l 604 0 b 973 408 913 0 973 191 l 973 654 b 571 1041 973 937 853 1041 l 84 1041 l 84 611 "},"I":{"x_min":89.828125,"x_max":285.828125,"ha":383,"o":"m 285 1041 l 89 1041 l 89 0 l 285 0 l 285 1041 "},"ˉ":{"x_min":102.078125,"x_max":477.75,"ha":592,"o":"m 102 958 l 102 852 l 477 852 l 477 958 l 102 958 "},"G":{"x_min":46.28125,"x_max":935.078125,"ha":1010,"o":"m 481 552 l 481 401 l 739 401 l 739 363 b 495 162 739 166 681 162 b 242 402 277 162 245 184 l 242 641 b 495 879 245 843 266 879 b 739 727 665 879 739 880 l 933 727 b 495 1050 940 1062 744 1050 b 46 641 179 1050 46 988 l 46 402 b 495 -8 46 50 168 -8 b 935 363 858 -8 935 55 l 935 552 l 481 552 "},"`":{"x_min":102,"x_max":402.8125,"ha":515,"o":"m 163 1032 l 102 918 l 366 799 l 402 871 l 163 1032 "},"·":{"x_min":153.8125,"x_max":325.3125,"ha":489,"o":"m 325 488 l 153 488 l 153 298 l 325 298 l 325 488 "},"r":{"x_min":72.140625,"x_max":620.671875,"ha":654,"o":"m 72 729 l 72 0 l 243 0 l 243 450 b 372 604 240 544 270 604 b 460 487 453 604 460 561 l 460 450 l 620 450 l 620 508 b 432 737 620 645 583 737 b 242 633 349 737 276 713 l 235 633 l 239 729 l 72 729 "},"¿":{"x_min":70.78125,"x_max":740.453125,"ha":826,"o":"m 364 393 l 364 369 b 251 241 364 280 323 272 b 70 -30 98 176 70 122 b 392 -323 70 -284 190 -323 b 740 -37 650 -323 740 -279 l 740 0 l 568 0 l 568 -37 b 398 -177 573 -159 539 -177 b 242 -30 274 -177 242 -163 b 386 133 242 87 292 91 b 536 369 514 190 536 220 l 536 393 l 364 393 m 536 729 l 364 729 l 364 538 l 536 538 l 536 729 "},"ý":{"x_min":-7,"x_max":667,"ha":674,"o":"m 667 729 l 492 729 l 353 108 l 351 108 l 170 729 l -7 729 l 228 0 l 311 0 b 172 -190 296 -84 280 -190 b 135 -186 160 -190 148 -187 l 135 -318 b 209 -323 160 -319 184 -323 b 481 -29 409 -323 442 -194 l 667 729 m 435 1031 l 195 870 l 232 798 l 496 918 l 435 1031 "},"x":{"x_min":-7,"x_max":686,"ha":694,"o":"m 662 729 l 464 729 l 340 495 l 216 729 l 20 729 l 228 383 l -7 0 l 197 0 l 340 266 l 484 0 l 686 0 l 454 383 l 662 729 "},"è":{"x_min":57.171875,"x_max":720.03125,"ha":792,"o":"m 548 231 b 386 125 548 123 481 125 b 228 331 232 125 228 175 l 720 331 b 386 737 720 650 680 737 b 57 362 98 737 57 623 b 386 -8 57 80 112 -8 b 720 231 590 -8 720 2 l 548 231 m 228 443 b 386 604 228 572 238 604 b 548 443 526 604 548 593 l 228 443 m 299 1031 l 238 918 l 502 798 l 539 870 l 299 1031 "},"º":{"x_min":91.1875,"x_max":509.0625,"ha":611,"o":"m 299 1050 b 91 829 115 1050 91 990 b 299 598 91 634 129 598 b 509 829 490 598 509 668 b 299 1050 509 1011 469 1050 m 299 959 b 392 829 385 959 392 940 b 299 688 392 736 392 688 b 208 829 212 688 208 702 b 299 959 208 930 212 959 "},"Ø":{"x_min":-0.25,"x_max":1025.890625,"ha":1047,"o":"m 1025 1074 l 887 948 b 516 1049 791 1049 646 1049 b 61 537 69 1049 61 899 b 82 192 61 421 61 250 l 0 115 l 0 -35 l 139 90 b 516 -7 229 -7 331 -7 b 966 537 927 -7 966 105 b 944 844 966 659 971 756 l 1025 917 l 1025 1074 m 770 682 l 770 523 b 516 162 770 225 782 162 b 286 223 432 162 304 162 l 770 682 m 256 353 l 256 640 b 516 879 258 824 290 879 b 741 815 617 879 696 876 l 256 353 "},"∞":{"x_min":77.578125,"x_max":1147.421875,"ha":1251,"o":"m 1147 422 b 910 676 1147 573 1048 676 b 620 491 775 677 695 576 b 332 676 539 593 450 676 b 77 413 187 676 77 566 b 319 156 77 265 190 156 b 613 344 446 156 530 245 b 899 156 721 211 807 156 b 1147 420 1026 156 1147 256 l 1147 422 m 330 250 b 172 412 236 250 172 325 b 323 587 172 509 231 587 b 563 411 431 587 496 497 b 333 250 502 343 427 250 l 330 250 m 901 587 b 1052 413 988 587 1052 519 b 905 250 1052 336 999 250 b 668 419 826 250 769 301 b 899 587 721 476 798 587 l 901 587 "},"μ":{"x_min":85.75,"x_max":722.75,"ha":824,"o":"m 722 0 l 722 729 l 551 729 l 551 308 b 377 125 551 182 509 125 b 257 269 266 125 257 165 l 257 729 l 85 729 l 85 -314 l 257 -314 l 257 -2 b 325 -8 280 -6 298 -8 b 551 112 423 -8 511 15 l 556 112 l 556 0 l 722 0 "},"÷":{"x_min":68.0625,"x_max":726.828125,"ha":811,"o":"m 68 326 l 726 326 l 726 459 l 68 459 l 68 326 m 317 56 l 477 56 l 477 220 l 317 220 l 317 56 m 317 565 l 477 565 l 477 729 l 317 729 l 317 565 "},"h":{"x_min":84.390625,"x_max":730.921875,"ha":831,"o":"m 255 1041 l 84 1041 l 84 0 l 255 0 l 255 401 b 426 604 255 531 276 604 b 559 462 536 604 559 568 l 559 0 l 730 0 l 730 480 b 485 737 730 658 673 737 b 261 619 385 737 299 726 l 255 619 l 255 1041 "},".":{"x_min":121.140625,"x_max":292.640625,"ha":489,"o":"m 292 190 l 121 190 l 121 0 l 292 0 l 292 190 "},";":{"x_min":121.140625,"x_max":306.25,"ha":489,"o":"m 121 -175 l 155 -175 b 306 23 300 -175 306 -95 l 306 187 l 134 187 l 134 0 l 202 0 b 121 -93 202 -77 171 -93 l 121 -175 m 306 729 l 134 729 l 134 538 l 306 538 l 306 729 "},"f":{"x_min":19.0625,"x_max":465.5,"ha":483,"o":"m 465 729 l 291 729 l 291 773 b 408 908 291 863 291 912 l 460 908 l 460 1041 l 348 1041 b 119 793 160 1041 119 968 l 119 729 l 19 729 l 19 595 l 119 595 l 119 0 l 291 0 l 291 595 l 465 595 l 465 729 "},"“":{"x_min":65.328125,"x_max":513.140625,"ha":589,"o":"m 513 1050 l 479 1050 b 328 851 333 1050 328 970 l 328 687 l 499 687 l 499 875 l 431 875 b 513 968 431 952 462 968 l 513 1050 m 250 1050 l 216 1050 b 65 851 70 1050 65 970 l 65 687 l 236 687 l 236 875 l 168 875 b 250 968 168 952 200 968 l 250 1050 "},"A":{"x_min":-4,"x_max":969,"ha":985,"o":"m 703 197 l 770 0 l 969 0 l 623 1041 l 334 1041 l -4 0 l 198 0 l 262 197 l 703 197 m 660 348 l 307 348 l 481 888 l 484 888 l 660 348 "},"6":{"x_min":83.03125,"x_max":861.578125,"ha":979,"o":"m 472 473 b 676 320 637 473 676 469 b 472 156 676 158 642 156 b 268 344 289 156 268 179 b 472 473 268 473 325 473 m 83 400 b 472 -6 83 44 168 -6 b 861 334 764 -6 861 51 b 498 637 861 601 770 637 b 270 537 400 637 302 626 l 268 537 l 268 701 b 472 887 268 876 298 887 b 668 752 615 887 668 884 l 853 752 b 472 1051 856 1040 705 1051 b 83 702 201 1051 85 995 l 83 400 "},"‘":{"x_min":65.328125,"x_max":250.4375,"ha":322,"o":"m 250 1050 l 216 1050 b 65 851 70 1050 65 970 l 65 687 l 236 687 l 236 875 l 168 875 b 250 968 168 952 200 968 l 250 1050 "},"π":{"x_min":8.171875,"x_max":965.03125,"ha":1011,"o":"m 948 629 l 965 761 l 266 761 b 8 713 126 761 49 743 l 28 611 b 210 629 68 623 119 629 b 99 0 205 447 156 151 l 265 0 b 378 629 322 123 370 445 l 650 629 l 650 220 b 677 0 650 100 660 25 l 842 0 b 820 236 831 44 820 112 l 820 629 l 948 629 "},"O":{"x_min":53.078125,"x_max":920.109375,"ha":993,"o":"m 484 1050 b 53 669 160 1050 53 993 l 53 388 b 484 -8 53 47 168 -8 b 920 388 793 -8 920 55 l 920 669 b 484 1050 920 1004 778 1050 m 484 879 b 724 669 658 879 728 865 l 724 388 b 484 162 724 187 662 162 b 249 388 288 162 249 181 l 249 669 b 484 879 253 834 273 879 "},"n":{"x_min":84.390625,"x_max":730.921875,"ha":831,"o":"m 84 729 l 84 0 l 255 0 l 255 401 b 426 604 255 531 276 604 b 559 462 536 604 559 568 l 559 0 l 730 0 l 730 480 b 485 737 730 658 673 737 b 261 619 385 737 299 726 l 255 619 l 255 729 l 84 729 "},"3":{"x_min":80.3125,"x_max":872.46875,"ha":979,"o":"m 80 351 b 466 -8 80 6 209 -8 b 872 301 726 -8 872 13 b 695 529 872 437 835 519 l 695 534 b 856 777 833 548 856 654 b 466 1050 856 1048 660 1050 b 91 706 196 1050 91 1006 l 276 706 b 466 886 276 868 298 886 b 671 777 626 886 671 877 b 551 606 671 652 653 606 l 402 606 l 402 455 l 551 455 b 687 301 661 455 687 412 b 466 155 687 156 634 155 b 265 351 296 155 265 158 l 80 351 "},"9":{"x_min":81.671875,"x_max":875.203125,"ha":979,"o":"m 477 886 b 690 722 631 886 690 877 b 477 570 690 581 656 570 b 274 722 299 570 274 586 b 477 886 274 872 299 886 m 81 291 b 477 -8 81 -2 254 -8 b 875 302 724 -8 875 38 l 875 604 b 477 1050 875 963 813 1050 b 89 722 167 1050 89 980 b 432 406 89 440 215 406 b 687 508 563 406 642 425 l 690 508 l 690 336 b 477 155 690 158 638 155 b 266 291 315 155 266 155 l 81 291 "},"l":{"x_min":85.75,"x_max":257.25,"ha":350,"o":"m 257 1041 l 85 1041 l 85 0 l 257 0 l 257 1041 "},"¤":{"x_min":137.40625,"x_max":823.3125,"ha":979,"o":"m 710 344 b 753 505 726 374 753 424 b 714 634 751 571 728 606 l 823 744 l 730 838 l 623 730 b 484 769 593 752 541 766 b 337 727 424 771 370 752 l 231 835 l 137 739 l 244 633 b 204 491 216 605 202 549 b 247 348 204 441 213 390 l 141 238 l 232 145 l 341 256 b 476 210 378 227 430 213 b 617 253 551 209 582 235 l 722 147 l 815 237 l 710 344 m 334 483 b 479 635 329 559 390 635 b 623 483 567 635 628 559 b 479 344 625 431 585 344 b 334 483 405 344 340 402 "},"∂":{"x_min":61.25,"x_max":862.953125,"ha":960,"o":"m 166 954 b 393 1025 208 983 284 1025 b 699 622 568 1025 699 858 b 698 563 699 606 699 579 l 696 563 b 419 716 671 606 575 716 b 61 344 217 716 61 563 b 402 -4 61 195 166 -4 b 862 591 694 -4 862 268 b 412 1154 862 947 656 1154 b 112 1065 261 1154 163 1101 l 166 954 m 417 125 b 225 344 304 125 225 223 b 453 591 225 481 326 591 b 677 430 575 591 658 488 b 419 125 657 280 563 125 l 417 125 "},"4":{"x_min":40.828125,"x_max":901.0625,"ha":979,"o":"m 781 1041 l 492 1041 l 40 440 l 40 222 l 596 222 l 596 0 l 781 0 l 781 222 l 901 222 l 901 373 l 781 373 l 781 1041 m 596 373 l 196 373 l 590 897 l 596 897 l 596 373 "},"p":{"x_min":81.671875,"x_max":748.609375,"ha":828,"o":"m 424 125 b 253 343 276 125 253 187 b 424 604 253 516 249 604 b 577 343 581 604 577 508 b 424 125 577 159 543 125 m 253 729 l 81 729 l 81 -315 l 253 -315 l 253 97 l 259 97 b 475 -8 296 8 387 -8 b 748 343 720 -8 748 129 b 475 737 748 566 740 737 b 251 619 374 737 295 715 l 246 619 l 253 729 "},"‡":{"x_min":125.21875,"x_max":834.359375,"ha":979,"o":"m 571 1041 l 386 1041 l 386 713 l 125 713 l 125 562 l 386 562 l 386 179 l 125 179 l 125 27 l 386 27 l 386 -315 l 571 -315 l 571 27 l 834 27 l 834 179 l 571 179 l 571 562 l 834 562 l 834 713 l 571 713 l 571 1041 "},"à":{"x_min":59.25,"x_max":716.671875,"ha":818,"o":"m 387 327 b 545 223 471 327 545 325 b 387 111 545 119 478 111 b 230 223 271 111 230 120 b 387 327 230 327 300 327 m 545 0 l 716 0 l 716 456 b 392 737 716 701 621 737 b 86 516 229 737 86 729 l 257 516 b 392 618 257 611 317 618 b 545 458 535 618 545 576 l 545 363 l 539 363 b 326 447 498 445 413 447 b 59 223 149 447 59 398 b 326 -8 59 26 164 -8 b 547 91 409 -8 513 -5 l 551 91 l 545 0 m 312 1031 l 251 918 l 515 798 l 551 870 l 312 1031 "},"Ü":{"x_min":88.46875,"x_max":937.8125,"ha":1047,"o":"m 741 1041 l 741 301 b 511 162 741 188 692 162 b 284 301 322 162 284 194 l 284 1041 l 88 1041 l 88 301 b 511 -8 88 9 272 -8 b 937 301 759 -8 937 11 l 937 1041 l 741 1041 m 307 1277 l 307 1155 l 442 1155 l 442 1277 l 307 1277 m 585 1277 l 585 1155 l 720 1155 l 720 1277 l 585 1277 "},"ó":{"x_min":59.890625,"x_max":732.28125,"ha":808,"o":"m 396 737 b 59 363 98 737 59 647 b 396 -8 59 81 98 -8 b 732 363 694 -8 732 81 b 396 737 732 647 694 737 m 396 604 b 560 362 548 604 560 559 b 396 125 560 168 548 125 b 231 362 243 125 231 168 b 396 604 231 559 243 604 m 485 1031 l 246 870 l 283 798 l 547 918 l 485 1031 "},"√":{"x_min":50,"x_max":984,"ha":985,"o":"m 984 1210 l 862 1210 l 561 51 b 537 -57 552 11 542 -27 l 534 -57 b 503 46 526 -24 514 11 l 299 580 l 50 478 l 79 392 l 202 440 l 466 -219 l 604 -219 l 984 1210 "}}}
